<svg xmlns:xlink="http://www.w3.org/1999/xlink" xmlns="http://www.w3.org/2000/svg" width="220px" height="221px" viewBox="0 0 220 221" version="1.1">
  <defs>
    <linearGradient x1="0.22518173" y1="0.12821668" x2="1" y2="0.60635453" id="gradient_1">
      <stop offset="0" stop-color="#112E61" stop-opacity="0"/>
      <stop offset="1" stop-color="#112E61"/>
    </linearGradient>
    <linearGradient x1="0.5" y1="0" x2="0.5" y2="0.26502547" id="gradient_2">
      <stop offset="0" stop-color="#4ABFE8"/>
      <stop offset="1" stop-color="#025CDD"/>
    </linearGradient>
    <linearGradient x1="0.5" y1="0" x2="0.62515235" y2="0.5715984" id="gradient_3">
      <stop offset="0" stop-color="#4ABFE8"/>
      <stop offset="1" stop-color="#025CDD"/>
    </linearGradient>
    <linearGradient x1="-0.07421568" y1="0.15407252" x2="0.77978295" y2="0.15407252" id="gradient_4">
      <stop offset="0" stop-color="#4ABFE8"/>
      <stop offset="1" stop-color="#025CDD"/>
    </linearGradient>
    <linearGradient x1="1.2016081" y1="0.5" x2="0" y2="0.5" id="gradient_5">
      <stop offset="0" stop-color="#4ABFE8"/>
      <stop offset="1" stop-color="#025CDD"/>
    </linearGradient>
    <linearGradient x1="0.5" y1="0.5" x2="1.1483229" y2="1.1699756" id="gradient_6">
      <stop offset="0" stop-color="#4ABFE8"/>
      <stop offset="1" stop-color="#025CDD"/>
    </linearGradient>
    <linearGradient x1="0.5" y1="0" x2="0.24176387" y2="0.93817425" id="gradient_7">
      <stop offset="0" stop-color="#4ABFE8"/>
      <stop offset="1" stop-color="#025CDD"/>
    </linearGradient>
    <linearGradient x1="1" y1="0.7921965" x2="0.047437258" y2="0.20626093" id="gradient_8">
      <stop offset="0" stop-color="#4798FF"/>
      <stop offset="1" stop-color="#2B3362" stop-opacity="0"/>
    </linearGradient>
    <linearGradient x1="0.5" y1="-1.0880355" x2="-0.23107582" y2="1.3210927" id="gradient_9">
      <stop offset="0" stop-color="#55CFEA"/>
      <stop offset="1" stop-color="#025CDD"/>
    </linearGradient>
    <filter filterUnits="userSpaceOnUse" color-interpolation-filters="sRGB" id="filter_1">
      <feFlood flood-opacity="0" result="BackgroundImageFix"/>
      <feBlend mode="normal" in="SourceGraphic" in2="BackgroundImageFix" result="shape"/>
      <feColorMatrix in="SourceAlpha" type="matrix" values="0 0 0 0 0 0 0 0 0 0 0 0 0 0 0 0 0 0 127 0" result="hardAlpha"/>
      <feOffset dx="-14" dy="0"/>
      <feGaussianBlur stdDeviation="11.5"/>
      <feComposite in2="hardAlpha" operator="arithmetic" k2="-1" k3="1"/>
      <feColorMatrix type="matrix" values="0 0 0 0 0 0 0 0 0 0.02745098 0 0 0 0 0.13333334 0 0 0 0.23921569 0"/>
      <feBlend mode="normal" in2="shape" result="effect0_innerShadow"/>
    </filter>
    <path d="M94.3452 3.82586L145.916 33.6232Q146.319 33.8565 146.715 34.1029Q147.111 34.3493 147.499 34.6086Q147.887 34.8678 148.266 35.1396Q148.645 35.4114 149.015 35.6954Q149.385 35.9795 149.745 36.2754Q150.106 36.5714 150.456 36.879Q150.807 37.1867 151.147 37.5056Q151.487 37.8245 151.817 38.1544Q152.147 38.4843 152.466 38.8247Q152.784 39.1652 153.092 39.516Q153.399 39.8667 153.695 40.2273Q153.991 40.5879 154.275 40.958Q154.559 41.3281 154.83 41.7072Q155.102 42.0864 155.361 42.4742Q155.62 42.8621 155.866 43.2582Q156.112 43.6543 156.345 44.0583Q156.579 44.4622 156.798 44.8736Q157.018 45.285 157.224 45.7033Q157.431 46.1216 157.623 46.5465Q157.815 46.9713 157.994 47.4022Q158.172 47.8332 158.337 48.2697Q158.501 48.7062 158.651 49.1479Q158.801 49.5896 158.936 50.0359Q159.071 50.4822 159.192 50.9327Q159.313 51.3833 159.418 51.8375Q159.524 52.2917 159.615 52.7492Q159.706 53.2066 159.782 53.6668Q159.858 54.127 159.919 54.5894Q159.98 55.0518 160.026 55.5159Q160.071 55.9801 160.102 56.4455Q160.132 56.9109 160.148 57.3771Q160.163 57.8432 160.163 58.3096L160.163 117.943Q160.163 118.409 160.148 118.875Q160.132 119.341 160.102 119.807Q160.071 120.272 160.026 120.736Q159.98 121.2 159.919 121.663Q159.858 122.125 159.782 122.585Q159.706 123.046 159.615 123.503Q159.524 123.96 159.418 124.415Q159.313 124.869 159.192 125.319Q159.071 125.77 158.936 126.216Q158.801 126.663 158.651 127.104Q158.501 127.546 158.337 127.982Q158.172 128.419 157.994 128.85Q157.815 129.281 157.623 129.706Q157.431 130.131 157.224 130.549Q157.018 130.967 156.798 131.379Q156.579 131.79 156.345 132.194Q156.112 132.598 155.866 132.994Q155.62 133.39 155.361 133.778Q155.102 134.166 154.83 134.545Q154.559 134.924 154.275 135.294Q153.991 135.664 153.695 136.025Q153.399 136.385 153.092 136.736Q152.784 137.087 152.466 137.427Q152.147 137.768 151.817 138.098Q151.487 138.428 151.147 138.747Q150.807 139.065 150.456 139.373Q150.106 139.681 149.745 139.977Q149.385 140.273 149.015 140.557Q148.645 140.841 148.266 141.113Q147.887 141.384 147.499 141.644Q147.111 141.903 146.715 142.149Q146.319 142.396 145.916 142.629L94.3452 172.426Q93.941 172.66 93.5293 172.88Q93.1177 173.1 92.699 173.307Q92.2804 173.513 91.8552 173.706Q91.43 173.899 90.9987 174.078Q90.5675 174.257 90.1306 174.421Q89.6937 174.586 89.2517 174.736Q88.8096 174.886 88.3629 175.022Q87.9162 175.157 87.4652 175.278Q87.0143 175.399 86.5597 175.505Q86.105 175.611 85.6472 175.702Q85.1893 175.793 84.7287 175.87Q84.2681 175.946 83.8052 176.007Q83.3424 176.068 82.8778 176.113Q82.4132 176.159 81.9473 176.19Q81.4815 176.22 81.0149 176.236Q80.5483 176.251 80.0814 176.251Q79.6146 176.251 79.148 176.236Q78.6814 176.22 78.2155 176.19Q77.7497 176.159 77.2851 176.113Q76.8205 176.068 76.3576 176.007Q75.8948 175.946 75.4341 175.87Q74.9735 175.793 74.5157 175.702Q74.0578 175.611 73.6032 175.505Q73.1485 175.399 72.6976 175.278Q72.2467 175.157 71.7999 175.022Q71.3532 174.886 70.9112 174.736Q70.4691 174.586 70.0322 174.421Q69.5954 174.257 69.1641 174.078Q68.7328 173.899 68.3076 173.706Q67.8825 173.513 67.4638 173.307Q67.0451 173.1 66.6335 172.88Q66.2218 172.66 65.8176 172.426L14.2472 142.629Q13.8434 142.396 13.4474 142.149Q13.0514 141.903 12.6637 141.644Q12.276 141.384 11.8969 141.113Q11.5179 140.841 11.148 140.557Q10.778 140.273 10.4176 139.977Q10.0571 139.681 9.70654 139.373Q9.35596 139.065 9.01564 138.747Q8.67531 138.428 8.3456 138.098Q8.01588 137.768 7.69714 137.427Q7.37839 137.087 7.07095 136.736Q6.76351 136.385 6.46771 136.025Q6.17191 135.664 5.88806 135.294Q5.60421 134.924 5.33261 134.545Q5.06102 134.166 4.80198 133.778Q4.54293 133.39 4.29671 132.994Q4.05049 132.598 3.81735 132.194Q3.58422 131.79 3.36443 131.379Q3.14463 130.967 2.93841 130.549Q2.73218 130.131 2.53976 129.706Q2.34733 129.281 2.1689 128.85Q1.99047 128.419 1.82623 127.982Q1.66199 127.546 1.51211 127.104Q1.36224 126.663 1.22689 126.216Q1.09154 125.77 0.970869 125.319Q0.850193 124.869 0.744318 124.415Q0.638442 123.96 0.54748 123.503Q0.456519 123.046 0.380568 122.585Q0.304618 122.125 0.243759 121.663Q0.182901 121.2 0.1372 120.736Q0.0914995 120.272 0.0610051 119.807Q0.0305107 119.341 0.0152554 118.875Q3.5622e-14 118.409 3.53643e-14 117.943L2.4217e-15 58.3096Q2.16405e-15 57.8432 0.0152554 57.3771Q0.0305107 56.9109 0.0610051 56.4455Q0.0914995 55.9801 0.1372 55.5159Q0.182901 55.0518 0.243759 54.5894Q0.304618 54.127 0.380568 53.6668Q0.456519 53.2066 0.547481 52.7492Q0.638442 52.2917 0.744318 51.8375Q0.850193 51.3833 0.970869 50.9327Q1.09154 50.4822 1.22689 50.0359Q1.36224 49.5896 1.51211 49.1479Q1.66199 48.7062 1.82623 48.2697Q1.99047 47.8332 2.1689 47.4022Q2.34733 46.9713 2.53976 46.5465Q2.73218 46.1216 2.93841 45.7033Q3.14463 45.285 3.36443 44.8736Q3.58422 44.4622 3.81735 44.0583Q4.05049 43.6543 4.29671 43.2582Q4.54293 42.8621 4.80198 42.4742Q5.06102 42.0864 5.33262 41.7072Q5.60421 41.3281 5.88806 40.958Q6.17191 40.5879 6.46771 40.2273Q6.76351 39.8667 7.07095 39.516Q7.37839 39.1652 7.69714 38.8247Q8.01589 38.4843 8.3456 38.1544Q8.67531 37.8245 9.01564 37.5056Q9.35597 37.1867 9.70654 36.879Q10.0571 36.5714 10.4176 36.2754Q10.778 35.9795 11.148 35.6954Q11.5179 35.4114 11.8969 35.1396Q12.276 34.8678 12.6637 34.6086Q13.0514 34.3493 13.4474 34.1029Q13.8434 33.8565 14.2472 33.6232L65.8176 3.82586Q66.2218 3.5923 66.6335 3.37209Q67.0452 3.15189 67.4638 2.94529Q67.8825 2.73868 68.3076 2.54589Q68.7328 2.3531 69.1641 2.17434Q69.5954 1.99557 70.0323 1.83102Q70.4691 1.66647 70.9112 1.51632Q71.3532 1.36616 71.7999 1.23055Q72.2467 1.09495 72.6976 0.974044Q73.1485 0.853138 73.6032 0.74706Q74.0578 0.640983 74.5157 0.549847Q74.9735 0.458711 75.4342 0.382615Q75.8948 0.306518 76.3576 0.245543Q76.8205 0.184568 77.2851 0.138779Q77.7497 0.0929905 78.2155 0.0624374Q78.6814 0.0318843 79.148 0.0165995Q79.6146 0.00131474 80.0814 0.00131472Q80.5483 0.00131471 81.0149 0.0165994Q81.4815 0.0318842 81.9473 0.0624373Q82.4132 0.0929903 82.8778 0.138779Q83.3424 0.184568 83.8052 0.245543Q84.2681 0.306518 84.7287 0.382614Q85.1893 0.458711 85.6472 0.549847Q86.105 0.640982 86.5597 0.74706Q87.0143 0.853138 87.4652 0.974043Q87.9162 1.09495 88.3629 1.23055Q88.8096 1.36616 89.2517 1.51631Q89.6937 1.66647 90.1306 1.83102Q90.5675 1.99557 90.9987 2.17434Q91.43 2.3531 91.8552 2.54589Q92.2804 2.73868 92.699 2.94528Q93.1177 3.15189 93.5293 3.37209Q93.941 3.59229 94.3452 3.82586Z" transform="translate(27.637129 19.570868)" id="path_1"/>
  </defs>
  <g id="Affordable" transform="translate(1.5 1.5)">
    <path d="M0 0L217 0L217 217.04L0 217.04L0 0Z" transform="translate(0 0.43495566)" id="Rectangle-Copy-6" fill="none" stroke="none"/>
    <path d="M0 0L217 0L217 217.04L0 217.04L0 0Z" transform="translate(0 0.43495566)" id="Rectangle-Copy-8" fill="none" stroke="none"/>
    <g id="Polygon">
      <use stroke="none" fill="url(#gradient_1)" xlink:href="#path_1" fill-rule="evenodd" filter="url(#filter_1)"/>
    </g>
    <g id="Group-3" transform="translate(48 62)">
      <g id="Group" transform="translate(6 0)">
        <path d="M21.8339 64.4773C21.9468 63.6474 22.0055 62.804 22.0055 61.9529C22.0055 53.8985 6.72266 51.9661 3.5385e-12 52.1676L0 15.9874C0 13.3778 1.81013 11.005 4.04304 10.6875L78.957 0.0353263C81.1899 -0.282176 83 1.57589 83 4.18544L83 56.7354C83 59.345 81.1899 61.7178 78.957 62.0353L21.8339 64.4773Z" transform="translate(10 0.7376149)" id="Path" fill="url(#gradient_2)" fill-rule="evenodd" stroke="none"/>
        <path d="M4.17266e-12 43.1164L0 4.725C0 2.11545 2.11545 1.77636e-15 4.725 0L92.275 0C94.8845 0 97 2.11545 97 4.725L97 57.275C97 59.8845 94.8845 62 92.275 62L14.8836 62C14.9605 61.344 15 60.6766 15 60C15 51.2878 8.44634 44.1063 4.17266e-12 43.1164Z" transform="translate(10 12)" id="Path" fill="url(#gradient_3)" fill-rule="evenodd" stroke="none"/>
        <path d="M0 0L33.001 0Q33.1483 0 33.295 0.014441Q33.4416 0.028882 33.5861 0.0576249Q33.7306 0.0863679 33.8716 0.129136Q34.0126 0.171904 34.1487 0.228285Q34.2848 0.284667 34.4147 0.354118Q34.5447 0.42357 34.6671 0.505423Q34.7897 0.587276 34.9035 0.680742Q35.0174 0.774208 35.1216 0.878387Q35.2258 0.982566 35.3193 1.09645Q35.4127 1.21034 35.4946 1.33284Q35.5764 1.45535 35.6459 1.58528Q35.7153 1.71522 35.7717 1.85133Q35.8281 1.98745 35.8709 2.12844Q35.9136 2.26942 35.9424 2.41392Q35.9711 2.55842 35.9856 2.70505Q36 2.85167 36 2.999L36 14.001Q36 14.1483 35.9856 14.295Q35.9711 14.4416 35.9424 14.5861Q35.9136 14.7306 35.8709 14.8716Q35.8281 15.0126 35.7717 15.1487Q35.7153 15.2848 35.6459 15.4147Q35.5764 15.5447 35.4946 15.6672Q35.4127 15.7897 35.3193 15.9035Q35.2258 16.0174 35.1216 16.1216Q35.0174 16.2258 34.9035 16.3193Q34.7897 16.4127 34.6671 16.4946Q34.5447 16.5764 34.4147 16.6459Q34.2848 16.7153 34.1487 16.7717Q34.0126 16.8281 33.8716 16.8709Q33.7306 16.9136 33.5861 16.9424Q33.4416 16.9711 33.295 16.9856Q33.1483 17 33.001 17L0 17L0 0Z" transform="translate(75 35)" id="Rectangle" fill="url(#gradient_4)" fill-rule="evenodd" stroke="none"/>
        <g id="Group-4" transform="translate(0 30)">
          <path d="M7.32606e-14 26.9962L3.08864e-12 3.78C3.08838e-12 1.69236 1.69236 8.27582e-16 3.78 4.44089e-16L74.22 0C76.3076 7.03328e-15 78 1.69236 78 3.78L78 46.22C78 48.3076 76.3076 50 74.22 50L23.0038 50C24.2778 47.6157 25 44.8922 25 42C25 32.6112 17.3888 25 8 25C5.10781 25 2.3843 25.7222 0 26.9962L7.32606e-14 26.9962Z" transform="matrix(1 0 0 1 -2.8290703E-12 0)" id="Path" fill="url(#gradient_5)" fill-rule="evenodd" stroke="none"/>
          <path d="M0 0L78 0L78 9.84848L0 9.84848L0 0Z" transform="translate(0 10)" id="Rectangle" fill="#000000" fill-opacity="0.6862745" style="mix-blend-mode: soft-light;" fill-rule="evenodd" stroke="none"/>
        </g>
        <path d="M4 8C6.20914 8 8 6.20914 8 4C8 1.79086 6.20914 0 4 0C1.79086 0 0 1.79086 0 4C0 6.20914 1.79086 8 4 8Z" transform="translate(89 40)" id="Oval" fill="url(#gradient_6)" fill-rule="evenodd" stroke="none"/>
      </g>
      <g id="Group-2" transform="translate(0 58)">
        <path d="M14 28C21.732 28 28 21.732 28 14C28 6.26801 21.732 0 14 0C6.26801 0 0 6.26801 0 14C0 21.732 6.26801 28 14 28Z" id="Oval" fill="url(#gradient_7)" fill-rule="evenodd" stroke="none"/>
        <path d="M0 3.94349L4.20647 9.31646L14.2566 5.17168e-16" transform="translate(7 9)" id="Path-13" fill="none" fill-rule="evenodd" stroke="#FFFFFF" stroke-width="3"/>
      </g>
    </g>
    <path d="M101.73 3.41864L160.686 37.483Q161.09 37.7163 161.486 37.9628Q161.882 38.2092 162.269 38.4684Q162.657 38.7277 163.036 38.9995Q163.415 39.2712 163.785 39.5553Q164.155 39.8393 164.515 40.1353Q164.876 40.4313 165.226 40.7389Q165.577 41.0465 165.917 41.3654Q166.258 41.6843 166.587 42.0142Q166.917 42.3441 167.236 42.6846Q167.555 43.0251 167.862 43.3758Q168.169 43.7265 168.465 44.0871Q168.761 44.4477 169.045 44.8178Q169.329 45.1879 169.6 45.5671Q169.872 45.9462 170.131 46.3341Q170.39 46.7219 170.636 47.118Q170.882 47.5142 171.116 47.9181Q171.349 48.3221 171.568 48.7334Q171.788 49.1448 171.995 49.5631Q172.201 49.9815 172.393 50.4063Q172.586 50.8312 172.764 51.2621Q172.942 51.693 173.107 52.1295Q173.271 52.5661 173.421 53.0077Q173.571 53.4494 173.706 53.8957Q173.841 54.3421 173.962 54.7926Q174.083 55.2431 174.189 55.6973Q174.294 56.1516 174.385 56.609Q174.476 57.0665 174.552 57.5266Q174.628 57.9868 174.689 58.4492Q174.75 58.9116 174.796 59.3758Q174.841 59.84 174.872 60.3054Q174.902 60.7708 174.918 61.2369Q174.933 61.7031 174.933 62.1695L174.933 130.337Q174.933 130.803 174.918 131.269Q174.902 131.735 174.872 132.201Q174.841 132.666 174.796 133.13Q174.75 133.594 174.689 134.057Q174.628 134.519 174.552 134.979Q174.476 135.44 174.385 135.897Q174.294 136.354 174.189 136.809Q174.083 137.263 173.962 137.713Q173.841 138.164 173.706 138.61Q173.571 139.057 173.421 139.498Q173.271 139.94 173.107 140.376Q172.942 140.813 172.764 141.244Q172.586 141.675 172.393 142.1Q172.201 142.525 171.995 142.943Q171.788 143.361 171.569 143.773Q171.349 144.184 171.116 144.588Q170.882 144.992 170.636 145.388Q170.39 145.784 170.131 146.172Q169.872 146.56 169.6 146.939Q169.329 147.318 169.045 147.688Q168.761 148.058 168.465 148.419Q168.169 148.779 167.862 149.13Q167.555 149.481 167.236 149.821Q166.917 150.162 166.587 150.492Q166.258 150.822 165.917 151.141Q165.577 151.459 165.226 151.767Q164.876 152.075 164.515 152.371Q164.155 152.667 163.785 152.951Q163.415 153.235 163.036 153.507Q162.657 153.778 162.269 154.038Q161.882 154.297 161.486 154.543Q161.09 154.79 160.686 155.023L101.73 189.087Q101.326 189.321 100.914 189.541Q100.503 189.761 100.084 189.968Q99.6654 190.175 99.2402 190.367Q98.815 190.56 98.3838 190.739Q97.9525 190.918 97.5156 191.082Q97.0787 191.247 96.6367 191.397Q96.1946 191.547 95.7479 191.683Q95.3012 191.818 94.8503 191.939Q94.3994 192.06 93.9447 192.166Q93.4901 192.272 93.0322 192.363Q92.5743 192.454 92.1137 192.531Q91.6531 192.607 91.1903 192.668Q90.7274 192.729 90.2628 192.774Q89.7982 192.82 89.3324 192.851Q88.8665 192.881 88.3999 192.897Q87.9333 192.912 87.4665 192.912Q86.9996 192.912 86.533 192.897Q86.0664 192.881 85.6005 192.851Q85.1347 192.82 84.6701 192.774Q84.2055 192.729 83.7427 192.668Q83.2798 192.607 82.8192 192.531Q82.3586 192.455 81.9007 192.363Q81.4428 192.272 80.9882 192.166Q80.5336 192.06 80.0826 191.939Q79.6317 191.818 79.185 191.683Q78.7383 191.547 78.2962 191.397Q77.8542 191.247 77.4173 191.082Q76.9804 190.918 76.5491 190.739Q76.1179 190.56 75.6927 190.367Q75.2675 190.175 74.8489 189.968Q74.4302 189.761 74.0185 189.541Q73.6069 189.321 73.2027 189.087L14.2472 155.023Q13.8434 154.79 13.4474 154.543Q13.0514 154.297 12.6637 154.038Q12.276 153.778 11.8969 153.507Q11.5179 153.235 11.148 152.951Q10.778 152.667 10.4176 152.371Q10.0571 152.075 9.70654 151.767Q9.35597 151.459 9.01564 151.141Q8.67531 150.822 8.3456 150.492Q8.01589 150.162 7.69714 149.821Q7.37839 149.481 7.07095 149.13Q6.76351 148.779 6.46771 148.419Q6.17191 148.058 5.88806 147.688Q5.60421 147.318 5.33261 146.939Q5.06102 146.56 4.80198 146.172Q4.54293 145.784 4.29671 145.388Q4.05049 144.992 3.81735 144.588Q3.58422 144.184 3.36443 143.773Q3.14463 143.361 2.93841 142.943Q2.73218 142.525 2.53976 142.1Q2.34733 141.675 2.1689 141.244Q1.99047 140.813 1.82623 140.376Q1.66199 139.94 1.51211 139.498Q1.36224 139.057 1.22689 138.61Q1.09154 138.164 0.970869 137.713Q0.850193 137.263 0.744318 136.809Q0.638442 136.354 0.547481 135.897Q0.456519 135.44 0.380568 134.979Q0.304618 134.519 0.243759 134.057Q0.182901 133.594 0.1372 133.13Q0.0914995 132.666 0.0610051 132.201Q0.0305107 131.735 0.0152554 131.269Q3.72938e-14 130.803 3.70361e-14 130.337L-6.20911e-16 62.1695Q-8.78562e-16 61.7031 0.0152554 61.2369Q0.0305107 60.7708 0.0610051 60.3054Q0.0914995 59.84 0.1372 59.3758Q0.182901 58.9116 0.243759 58.4492Q0.304618 57.9868 0.380568 57.5266Q0.456519 57.0665 0.54748 56.609Q0.638442 56.1516 0.744318 55.6973Q0.850193 55.2431 0.970869 54.7926Q1.09154 54.3421 1.22689 53.8957Q1.36224 53.4494 1.51211 53.0077Q1.66199 52.5661 1.82623 52.1295Q1.99047 51.693 2.1689 51.2621Q2.34733 50.8312 2.53976 50.4063Q2.73218 49.9815 2.93841 49.5631Q3.14463 49.1448 3.36443 48.7334Q3.58422 48.3221 3.81735 47.9181Q4.05049 47.5142 4.29671 47.118Q4.54293 46.7219 4.80198 46.3341Q5.06102 45.9462 5.33261 45.5671Q5.60421 45.1879 5.88806 44.8178Q6.17191 44.4477 6.46771 44.0871Q6.76351 43.7265 7.07095 43.3758Q7.37839 43.0251 7.69714 42.6846Q8.01588 42.3441 8.3456 42.0142Q8.67531 41.6843 9.01564 41.3654Q9.35596 41.0465 9.70654 40.7389Q10.0571 40.4313 10.4176 40.1353Q10.778 39.8393 11.148 39.5553Q11.5179 39.2712 11.8969 38.9995Q12.276 38.7277 12.6637 38.4684Q13.0514 38.2092 13.4474 37.9628Q13.8434 37.7163 14.2472 37.483L73.2027 3.41864Q73.6069 3.18508 74.0185 2.96488Q74.4302 2.74468 74.8489 2.53807Q75.2675 2.33146 75.6927 2.13867Q76.1179 1.94589 76.5491 1.76712Q76.9804 1.58836 77.4173 1.42381Q77.8542 1.25926 78.2962 1.1091Q78.7383 0.958942 79.185 0.823338Q79.6317 0.687734 80.0826 0.566828Q80.5336 0.445922 80.9882 0.339845Q81.4428 0.233767 81.9007 0.142631Q82.3586 0.0514952 82.8192 -0.0246012Q83.2798 -0.100697 83.7427 -0.161673Q84.2055 -0.222648 84.6701 -0.268437Q85.1347 -0.314225 85.6006 -0.344778Q86.0664 -0.375332 86.533 -0.390616Q86.9996 -0.405901 87.4665 -0.405901Q87.9333 -0.405901 88.3999 -0.390616Q88.8665 -0.375332 89.3324 -0.344778Q89.7982 -0.314225 90.2628 -0.268437Q90.7274 -0.222648 91.1903 -0.161673Q91.6531 -0.100697 92.1137 -0.0246012Q92.5743 0.0514952 93.0322 0.142631Q93.4901 0.233767 93.9447 0.339845Q94.3994 0.445922 94.8503 0.566828Q95.3012 0.687734 95.7479 0.823338Q96.1946 0.958942 96.6367 1.1091Q97.0787 1.25926 97.5156 1.42381Q97.9525 1.58836 98.3838 1.76712Q98.815 1.94589 99.2402 2.13867Q99.6654 2.33146 100.084 2.53807Q100.503 2.74468 100.914 2.96488Q101.326 3.18508 101.73 3.41864L101.73 3.41864Z" transform="translate(20.031351 11.959185)" id="Polygon-Copy" fill="none" fill-rule="evenodd" stroke="url(#gradient_8)" stroke-width="2.8512"/>
    <path d="M101.73 3.41864L160.686 37.483Q161.09 37.7163 161.486 37.9628Q161.882 38.2092 162.269 38.4684Q162.657 38.7277 163.036 38.9995Q163.415 39.2712 163.785 39.5553Q164.155 39.8393 164.515 40.1353Q164.876 40.4313 165.226 40.7389Q165.577 41.0465 165.917 41.3654Q166.258 41.6843 166.587 42.0142Q166.917 42.3441 167.236 42.6846Q167.555 43.0251 167.862 43.3758Q168.169 43.7265 168.465 44.0871Q168.761 44.4477 169.045 44.8178Q169.329 45.1879 169.6 45.5671Q169.872 45.9462 170.131 46.3341Q170.39 46.7219 170.636 47.118Q170.882 47.5142 171.116 47.9181Q171.349 48.3221 171.568 48.7334Q171.788 49.1448 171.995 49.5631Q172.201 49.9815 172.393 50.4063Q172.586 50.8312 172.764 51.2621Q172.942 51.693 173.107 52.1295Q173.271 52.5661 173.421 53.0077Q173.571 53.4494 173.706 53.8957Q173.841 54.3421 173.962 54.7926Q174.083 55.2431 174.189 55.6973Q174.294 56.1516 174.385 56.609Q174.476 57.0665 174.552 57.5266Q174.628 57.9868 174.689 58.4492Q174.75 58.9116 174.796 59.3758Q174.841 59.84 174.872 60.3054Q174.902 60.7708 174.918 61.2369Q174.933 61.7031 174.933 62.1695L174.933 130.337Q174.933 130.803 174.918 131.269Q174.902 131.735 174.872 132.201Q174.841 132.666 174.796 133.13Q174.75 133.594 174.689 134.057Q174.628 134.519 174.552 134.979Q174.476 135.44 174.385 135.897Q174.294 136.354 174.189 136.809Q174.083 137.263 173.962 137.713Q173.841 138.164 173.706 138.61Q173.571 139.057 173.421 139.498Q173.271 139.94 173.107 140.376Q172.942 140.813 172.764 141.244Q172.586 141.675 172.393 142.1Q172.201 142.525 171.995 142.943Q171.788 143.361 171.569 143.773Q171.349 144.184 171.116 144.588Q170.882 144.992 170.636 145.388Q170.39 145.784 170.131 146.172Q169.872 146.56 169.6 146.939Q169.329 147.318 169.045 147.688Q168.761 148.058 168.465 148.419Q168.169 148.779 167.862 149.13Q167.555 149.481 167.236 149.821Q166.917 150.162 166.587 150.492Q166.258 150.822 165.917 151.141Q165.577 151.459 165.226 151.767Q164.876 152.075 164.515 152.371Q164.155 152.667 163.785 152.951Q163.415 153.235 163.036 153.507Q162.657 153.778 162.269 154.038Q161.882 154.297 161.486 154.543Q161.09 154.79 160.686 155.023L101.73 189.087Q101.326 189.321 100.914 189.541Q100.503 189.761 100.084 189.968Q99.6654 190.175 99.2402 190.367Q98.815 190.56 98.3838 190.739Q97.9525 190.918 97.5156 191.082Q97.0787 191.247 96.6367 191.397Q96.1946 191.547 95.7479 191.683Q95.3012 191.818 94.8503 191.939Q94.3994 192.06 93.9447 192.166Q93.4901 192.272 93.0322 192.363Q92.5743 192.454 92.1137 192.531Q91.6531 192.607 91.1903 192.668Q90.7274 192.729 90.2628 192.774Q89.7982 192.82 89.3324 192.851Q88.8665 192.881 88.3999 192.897Q87.9333 192.912 87.4665 192.912Q86.9996 192.912 86.533 192.897Q86.0664 192.881 85.6005 192.851Q85.1347 192.82 84.6701 192.774Q84.2055 192.729 83.7427 192.668Q83.2798 192.607 82.8192 192.531Q82.3586 192.455 81.9007 192.363Q81.4428 192.272 80.9882 192.166Q80.5336 192.06 80.0826 191.939Q79.6317 191.818 79.185 191.683Q78.7383 191.547 78.2962 191.397Q77.8542 191.247 77.4173 191.082Q76.9804 190.918 76.5491 190.739Q76.1179 190.56 75.6927 190.367Q75.2675 190.175 74.8489 189.968Q74.4302 189.761 74.0185 189.541Q73.6069 189.321 73.2027 189.087L14.2472 155.023Q13.8434 154.79 13.4474 154.543Q13.0514 154.297 12.6637 154.038Q12.276 153.778 11.8969 153.507Q11.5179 153.235 11.148 152.951Q10.778 152.667 10.4176 152.371Q10.0571 152.075 9.70654 151.767Q9.35597 151.459 9.01564 151.141Q8.67531 150.822 8.3456 150.492Q8.01589 150.162 7.69714 149.821Q7.37839 149.481 7.07095 149.13Q6.76351 148.779 6.46771 148.419Q6.17191 148.058 5.88806 147.688Q5.60421 147.318 5.33261 146.939Q5.06102 146.56 4.80198 146.172Q4.54293 145.784 4.29671 145.388Q4.05049 144.992 3.81735 144.588Q3.58422 144.184 3.36443 143.773Q3.14463 143.361 2.93841 142.943Q2.73218 142.525 2.53976 142.1Q2.34733 141.675 2.1689 141.244Q1.99047 140.813 1.82623 140.376Q1.66199 139.94 1.51211 139.498Q1.36224 139.057 1.22689 138.61Q1.09154 138.164 0.970869 137.713Q0.850193 137.263 0.744318 136.809Q0.638442 136.354 0.547481 135.897Q0.456519 135.44 0.380568 134.979Q0.304618 134.519 0.243759 134.057Q0.182901 133.594 0.1372 133.13Q0.0914995 132.666 0.0610051 132.201Q0.0305107 131.735 0.0152554 131.269Q3.72938e-14 130.803 3.70361e-14 130.337L-6.20911e-16 62.1695Q-8.78562e-16 61.7031 0.0152554 61.2369Q0.0305107 60.7708 0.0610051 60.3054Q0.0914995 59.84 0.1372 59.3758Q0.182901 58.9116 0.243759 58.4492Q0.304618 57.9868 0.380568 57.5266Q0.456519 57.0665 0.54748 56.609Q0.638442 56.1516 0.744318 55.6973Q0.850193 55.2431 0.970869 54.7926Q1.09154 54.3421 1.22689 53.8957Q1.36224 53.4494 1.51211 53.0077Q1.66199 52.5661 1.82623 52.1295Q1.99047 51.693 2.1689 51.2621Q2.34733 50.8312 2.53976 50.4063Q2.73218 49.9815 2.93841 49.5631Q3.14463 49.1448 3.36443 48.7334Q3.58422 48.3221 3.81735 47.9181Q4.05049 47.5142 4.29671 47.118Q4.54293 46.7219 4.80198 46.3341Q5.06102 45.9462 5.33261 45.5671Q5.60421 45.1879 5.88806 44.8178Q6.17191 44.4477 6.46771 44.0871Q6.76351 43.7265 7.07095 43.3758Q7.37839 43.0251 7.69714 42.6846Q8.01588 42.3441 8.3456 42.0142Q8.67531 41.6843 9.01564 41.3654Q9.35596 41.0465 9.70654 40.7389Q10.0571 40.4313 10.4176 40.1353Q10.778 39.8393 11.148 39.5553Q11.5179 39.2712 11.8969 38.9995Q12.276 38.7277 12.6637 38.4684Q13.0514 38.2092 13.4474 37.9628Q13.8434 37.7163 14.2472 37.483L73.2027 3.41864Q73.6069 3.18508 74.0185 2.96488Q74.4302 2.74468 74.8489 2.53807Q75.2675 2.33146 75.6927 2.13867Q76.1179 1.94589 76.5491 1.76712Q76.9804 1.58836 77.4173 1.42381Q77.8542 1.25926 78.2962 1.1091Q78.7383 0.958942 79.185 0.823338Q79.6317 0.687734 80.0826 0.566828Q80.5336 0.445922 80.9882 0.339845Q81.4428 0.233767 81.9007 0.142631Q82.3586 0.0514952 82.8192 -0.0246012Q83.2798 -0.100697 83.7427 -0.161673Q84.2055 -0.222648 84.6701 -0.268437Q85.1347 -0.314225 85.6006 -0.344778Q86.0664 -0.375332 86.533 -0.390616Q86.9996 -0.405901 87.4665 -0.405901Q87.9333 -0.405901 88.3999 -0.390616Q88.8665 -0.375332 89.3324 -0.344778Q89.7982 -0.314225 90.2628 -0.268437Q90.7274 -0.222648 91.1903 -0.161673Q91.6531 -0.100697 92.1137 -0.0246012Q92.5743 0.0514952 93.0322 0.142631Q93.4901 0.233767 93.9447 0.339845Q94.3994 0.445922 94.8503 0.566828Q95.3012 0.687734 95.7479 0.823338Q96.1946 0.958942 96.6367 1.1091Q97.0787 1.25926 97.5156 1.42381Q97.9525 1.58836 98.3838 1.76712Q98.815 1.94589 99.2402 2.13867Q99.6654 2.33146 100.084 2.53807Q100.503 2.74468 100.914 2.96488Q101.326 3.18508 101.73 3.41864L101.73 3.41864Z" transform="translate(21.932796 11.959185)" id="Polygon-Copy-2" fill="none" fill-rule="evenodd" stroke="url(#gradient_8)" stroke-opacity="0.4" stroke-width="2.8512"/>
    <path d="M3.76837 -0.0199423L6.11237 1.33442Q6.22056 1.39693 6.30889 1.4853Q6.39722 1.57368 6.45968 1.6819Q6.52214 1.79012 6.55447 1.91082Q6.5868 2.03151 6.5868 2.15646L6.5868 4.86646Q6.5868 4.99141 6.55447 5.1121Q6.52214 5.2328 6.45968 5.34102Q6.39722 5.44924 6.30889 5.53761Q6.22056 5.62599 6.11237 5.6885L3.76837 7.04286Q3.66008 7.10543 3.53928 7.13782Q3.41847 7.17021 3.2934 7.17021Q3.16833 7.17021 3.04752 7.13782Q2.92672 7.10543 2.81842 7.04286L0.474424 5.6885Q0.366235 5.62599 0.277904 5.53761Q0.189573 5.44924 0.127116 5.34102Q0.0646588 5.2328 0.0323294 5.1121Q-1.75102e-14 4.99141 -1.75792e-14 4.86646L-1.90763e-14 2.15646Q-1.91453e-14 2.03151 0.0323294 1.91082Q0.0646588 1.79012 0.127116 1.6819Q0.189573 1.57368 0.277904 1.4853Q0.366235 1.39693 0.474424 1.33442L2.81842 -0.0199423Q2.92672 -0.0825147 3.04752 -0.114906Q3.16833 -0.147297 3.2934 -0.147297Q3.41847 -0.147297 3.53928 -0.114906Q3.66008 -0.0825147 3.76837 -0.0199423L3.76837 -0.0199423Z" transform="translate(202.59735 121.43936)" id="Polygon-2-Copy-6" fill="url(#gradient_9)" fill-rule="evenodd" stroke="none"/>
    <path d="M3.76837 -0.0199423L6.11237 1.33442Q6.22056 1.39693 6.30889 1.4853Q6.39722 1.57368 6.45968 1.6819Q6.52214 1.79012 6.55447 1.91082Q6.5868 2.03151 6.5868 2.15646L6.5868 4.86646Q6.5868 4.99141 6.55447 5.1121Q6.52214 5.2328 6.45968 5.34102Q6.39722 5.44924 6.30889 5.53761Q6.22056 5.62599 6.11237 5.6885L3.76837 7.04286Q3.66008 7.10543 3.53928 7.13782Q3.41847 7.17021 3.2934 7.17021Q3.16833 7.17021 3.04752 7.13782Q2.92672 7.10543 2.81842 7.04286L0.474424 5.6885Q0.366235 5.62599 0.277904 5.53761Q0.189573 5.44924 0.127116 5.34102Q0.0646588 5.2328 0.0323294 5.1121Q-1.75102e-14 4.99141 -1.75792e-14 4.86646L-1.90763e-14 2.15646Q-1.91453e-14 2.03151 0.0323294 1.91082Q0.0646588 1.79012 0.127116 1.6819Q0.189573 1.57368 0.277904 1.4853Q0.366235 1.39693 0.474424 1.33442L2.81842 -0.0199423Q2.92672 -0.0825147 3.04752 -0.114906Q3.16833 -0.147297 3.2934 -0.147297Q3.41847 -0.147297 3.53928 -0.114906Q3.66008 -0.0825147 3.76837 -0.0199423L3.76837 -0.0199423Z" transform="translate(197.8826 164.19283)" id="Polygon-2-Copy-15" fill="url(#gradient_9)" fill-rule="evenodd" stroke="none"/>
    <path d="M2.20394 0.127249L2.9835 0.577678Q3.09169 0.640189 3.18002 0.728565Q3.26835 0.81694 3.3308 0.925161Q3.39326 1.03338 3.42559 1.15408Q3.45792 1.27477 3.45792 1.39972L3.45792 2.30186Q3.45792 2.42681 3.42559 2.5475Q3.39326 2.6682 3.3308 2.77642Q3.26835 2.88464 3.18002 2.97301Q3.09169 3.06139 2.9835 3.1239L2.20394 3.57433Q2.09564 3.6369 1.97484 3.66929Q1.85403 3.70168 1.72896 3.70168Q1.60389 3.70168 1.48308 3.66929Q1.36228 3.6369 1.25398 3.57433L0.474424 3.1239Q0.366235 3.06139 0.277904 2.97301Q0.189573 2.88464 0.127116 2.77642Q0.0646587 2.6682 0.0323294 2.5475Q-1.61178e-14 2.42681 -1.61868e-14 2.30186L-1.66852e-14 1.39972Q-1.67542e-14 1.27477 0.0323294 1.15408Q0.0646588 1.03338 0.127116 0.925161Q0.189573 0.81694 0.277904 0.728565Q0.366235 0.640189 0.474424 0.577678L1.25398 0.127249Q1.36228 0.0646767 1.48308 0.0322854Q1.60389 -0.000105937 1.72896 -0.000105937Q1.85403 -0.000105937 1.97484 0.0322854Q2.09564 0.0646767 2.20394 0.127249Z" transform="translate(175.71239 137.76535)" id="Polygon-2-Copy-2" fill="url(#gradient_9)" fill-rule="evenodd" stroke="none"/>
    <path d="M2.20394 0.127249L2.9835 0.577678Q3.09169 0.640189 3.18002 0.728565Q3.26835 0.81694 3.3308 0.925161Q3.39326 1.03338 3.42559 1.15408Q3.45792 1.27477 3.45792 1.39972L3.45792 2.30186Q3.45792 2.42681 3.42559 2.5475Q3.39326 2.6682 3.3308 2.77642Q3.26835 2.88464 3.18002 2.97301Q3.09169 3.06139 2.9835 3.1239L2.20394 3.57433Q2.09564 3.6369 1.97484 3.66929Q1.85403 3.70168 1.72896 3.70168Q1.60389 3.70168 1.48308 3.66929Q1.36228 3.6369 1.25398 3.57433L0.474424 3.1239Q0.366235 3.06139 0.277904 2.97301Q0.189573 2.88464 0.127116 2.77642Q0.0646587 2.6682 0.0323294 2.5475Q-9.35143e-15 2.42681 -9.42046e-15 2.30186L-9.91882e-15 1.39972Q-9.98784e-15 1.27477 0.0323294 1.15408Q0.0646588 1.03338 0.127116 0.925161Q0.189573 0.81694 0.277904 0.728565Q0.366235 0.640189 0.474424 0.577678L1.25398 0.127249Q1.36228 0.0646767 1.48308 0.0322854Q1.60389 -0.000105937 1.72896 -0.000105937Q1.85403 -0.000105937 1.97484 0.0322854Q2.09564 0.0646767 2.20394 0.127249Z" transform="translate(9.886079 105.11337)" id="Polygon-2-Copy-7" fill="url(#gradient_9)" fill-rule="evenodd" stroke="none"/>
    <path d="M2.20394 0.127249L2.9835 0.577678Q3.09169 0.640189 3.18002 0.728565Q3.26835 0.81694 3.3308 0.925161Q3.39326 1.03338 3.42559 1.15408Q3.45792 1.27477 3.45792 1.39972L3.45792 2.30186Q3.45792 2.42681 3.42559 2.5475Q3.39326 2.6682 3.3308 2.77642Q3.26835 2.88464 3.18002 2.97301Q3.09169 3.06139 2.9835 3.1239L2.20394 3.57433Q2.09564 3.6369 1.97484 3.66929Q1.85403 3.70168 1.72896 3.70168Q1.60389 3.70168 1.48308 3.66929Q1.36228 3.6369 1.25398 3.57433L0.474424 3.1239Q0.366235 3.06139 0.277904 2.97301Q0.189573 2.88464 0.127116 2.77642Q0.0646587 2.6682 0.0323294 2.5475Q-9.35143e-15 2.42681 -9.42046e-15 2.30186L-9.91882e-15 1.39972Q-9.98784e-15 1.27477 0.0323294 1.15408Q0.0646588 1.03338 0.127116 0.925161Q0.189573 0.81694 0.277904 0.728565Q0.366235 0.640189 0.474424 0.577678L1.25398 0.127249Q1.36228 0.0646767 1.48308 0.0322854Q1.60389 -0.000105937 1.72896 -0.000105937Q1.85403 -0.000105937 1.97484 0.0322854Q2.09564 0.0646767 2.20394 0.127249Z" transform="translate(62.880035 23.376707)" id="Polygon-2-Copy-14" fill="url(#gradient_9)" fill-rule="evenodd" stroke="none"/>
    <path d="M3.1521 0.127249L4.87983 1.12553Q4.98802 1.18804 5.07635 1.27641Q5.16468 1.36479 5.22714 1.47301Q5.28959 1.58123 5.32192 1.70193Q5.35425 1.82262 5.35425 1.94757L5.35425 3.9454Q5.35425 4.07035 5.32192 4.19105Q5.28959 4.31174 5.22714 4.41996Q5.16468 4.52818 5.07635 4.61656Q4.98802 4.70493 4.87983 4.76745L3.1521 5.76572Q3.04381 5.8283 2.923 5.86069Q2.8022 5.89308 2.67713 5.89308Q2.55205 5.89308 2.43125 5.86069Q2.31044 5.8283 2.20215 5.76572L0.474424 4.76745Q0.366235 4.70493 0.277904 4.61656Q0.189573 4.52818 0.127116 4.41996Q0.0646588 4.31174 0.0323294 4.19105Q-1.45746e-14 4.07035 -1.46436e-14 3.9454L-1.57472e-14 1.94757Q-1.58163e-14 1.82262 0.0323294 1.70193Q0.0646588 1.58123 0.127116 1.47301Q0.189573 1.36479 0.277904 1.27641Q0.366235 1.18804 0.474424 1.12553L2.20215 0.127249Q2.31044 0.0646767 2.43125 0.0322854Q2.55205 -0.000105937 2.67713 -0.000105937Q2.8022 -0.000105937 2.923 0.0322854Q3.04381 0.0646767 3.1521 0.127249Z" transform="translate(47.66848 19.570868)" id="Polygon-2-Copy" fill="url(#gradient_9)" fill-rule="evenodd" stroke="none"/>
  </g>
</svg>