<svg xmlns="http://www.w3.org/2000/svg" xmlns:xlink="http://www.w3.org/1999/xlink" width="146px" height="155px" viewBox="0 0 146 155" version="1.1">
    <!-- Generator: Sketch 52.5 (67469) - http://www.bohemiancoding.com/sketch -->
    <title>All-Round</title>
    <desc>Created with Sketch.</desc>
    <defs>
        <linearGradient x1="22.5181731%" y1="12.8216691%" x2="100%" y2="60.6354535%" id="linearGradient-1">
            <stop stop-color="#112E61" stop-opacity="0" offset="0%"/>
            <stop stop-color="#112E61" offset="100%"/>
        </linearGradient>
        <path d="M87.7717092,9.02844995 L127.979739,32.4221936 C134.835305,36.4108838 139.052791,43.7440725 139.052791,51.6755568 L139.052791,98.7612929 C139.052791,106.692777 134.835305,114.025966 127.979739,118.014656 L87.7717092,141.4084 C80.8471192,145.437249 72.2924038,145.437249 65.3678138,141.4084 L25.1597844,118.014656 C18.3042178,114.025966 14.0867321,106.692777 14.0867321,98.7612929 L14.0867321,51.6755568 C14.0867321,43.7440725 18.3042178,36.4108838 25.1597844,32.4221936 L65.3678138,9.02844995 C72.2924038,4.99960082 80.8471192,4.99960082 87.7717092,9.02844995 Z" id="path-2"/>
        <filter x="-12.0%" y="-10.8%" width="124.0%" height="121.6%" filterUnits="objectBoundingBox" id="filter-3">
            <feGaussianBlur stdDeviation="10" in="SourceAlpha" result="shadowBlurInner1"/>
            <feOffset dx="-10" dy="0" in="shadowBlurInner1" result="shadowOffsetInner1"/>
            <feComposite in="shadowOffsetInner1" in2="SourceAlpha" operator="arithmetic" k2="-1" k3="1" result="shadowInnerInner1"/>
            <feColorMatrix values="0 0 0 0 0   0 0 0 0 0.0274509804   0 0 0 0 0.133333333  0 0 0 0.24 0" type="matrix" in="shadowInnerInner1"/>
        </filter>
        <linearGradient x1="100%" y1="79.2196502%" x2="4.74372584%" y2="20.6260934%" id="linearGradient-4">
            <stop stop-color="#F5A440" offset="0%"/>
            <stop stop-color="#2B3362" stop-opacity="0" offset="100%"/>
        </linearGradient>
        <polygon id="path-5" points="9.92732113 0.0377757988 1.10422933 35.7610127 0.0386285981 35.7610127"/>
        <polygon id="path-7" points="0.082285771 35.9374533 8.90560614 0.21444676 10.2651499 0.21444676"/>
        <path d="M38.2157978,11.201676 L36.2823107,16.3179934 L34.881624,17.9939489 L36.8432254,10.0430646 C37.9929405,5.39986616 34.5076809,0.905237129 29.7570491,0.905237129 L0.059657184,0.905237129 L30.3975067,0.0953608578" id="path-9"/>
        <path d="M0.594971839,6.80793602 L2.52845889,1.6916187 L3.92891699,0.0156631361 L1.96754421,7.96677775 C0.817829135,12.6097459 4.30308868,17.1043749 9.05372053,17.1043749 L38.751341,17.1043749 L8.41303437,17.9144815" id="path-11"/>
        <linearGradient x1="99.4504059%" y1="95.6159087%" x2="-9.64155221%" y2="14.6498723%" id="linearGradient-13">
            <stop stop-color="#F4A440" offset="0%"/>
            <stop stop-color="#FAD165" offset="100%"/>
        </linearGradient>
        <linearGradient x1="63.8330311%" y1="78.6297402%" x2="24.4353003%" y2="0%" id="linearGradient-14">
            <stop stop-color="#F4A440" offset="0%"/>
            <stop stop-color="#FAD165" offset="100%"/>
        </linearGradient>
        <ellipse id="path-15" cx="32.7586207" cy="33.9285714" rx="32.7586207" ry="33.9285714"/>
        <linearGradient x1="75.1092516%" y1="146.624826%" x2="50%" y2="-15.0275094%" id="linearGradient-17">
            <stop stop-color="#FFFFFF" offset="0%"/>
            <stop stop-color="#FFFFFF" stop-opacity="0" offset="100%"/>
        </linearGradient>
        <linearGradient x1="75.3987011%" y1="119.912968%" x2="50%" y2="-15.0275094%" id="linearGradient-18">
            <stop stop-color="#FFFFFF" offset="0%"/>
            <stop stop-color="#FFFFFF" stop-opacity="0" offset="100%"/>
        </linearGradient>
        <linearGradient x1="-11.0261668%" y1="88.4000046%" x2="50%" y2="-15.0275094%" id="linearGradient-19">
            <stop stop-color="#FFFFFF" offset="0%"/>
            <stop stop-color="#FFFFFF" stop-opacity="0" offset="100%"/>
        </linearGradient>
        <linearGradient x1="100%" y1="10.0931666%" x2="25.4796232%" y2="63.2825491%" id="linearGradient-20">
            <stop stop-color="#FFFFFF" offset="0%"/>
            <stop stop-color="#FFFFFF" stop-opacity="0" offset="100%"/>
        </linearGradient>
    </defs>
    <g id="Page-1" stroke="none" stroke-width="1" fill="none" fill-rule="evenodd">
        <g id="Development" transform="translate(-728.000000, -840.000000)">
            <g id="All-Round" transform="translate(726.000000, 842.000000)">
                <g id="Group-31">
                    <g id="Group">
                        <g id="Polygon-Copy-5">
                            <use fill="url(#linearGradient-1)" fill-rule="evenodd" xlink:href="#path-2"/>
                            <use fill="black" fill-opacity="1" filter="url(#filter-3)" xlink:href="#path-2"/>
                        </g>
                        <path d="M87.599478,2.72823118 L133.569638,29.4744845 C140.425205,33.4631746 144.64269,40.7963633 144.64269,48.7278476 L144.64269,102.518603 C144.64269,110.450087 140.425205,117.783276 133.569638,121.771966 L87.599478,148.518219 C80.674888,152.547069 72.1201726,152.547069 65.1955826,148.518219 L19.2254227,121.771966 C12.369856,117.783276 8.15237041,110.450087 8.15237041,102.518603 L8.15237041,48.7278476 C8.15237041,40.7963633 12.369856,33.4631746 19.2254227,29.4744845 L65.1955826,2.72823118 C72.1201726,-1.30061795 80.674888,-1.30061795 87.599478,2.72823118 Z" id="Polygon-Copy-4" stroke="url(#linearGradient-4)" stroke-width="2.5"/>
                        <path d="M89.0830685,2.72823118 L135.053228,29.4744845 C141.908795,33.4631746 146.126281,40.7963633 146.126281,48.7278476 L146.126281,102.518603 C146.126281,110.450087 141.908795,117.783276 135.053228,121.771966 L89.0830685,148.518219 C82.1584784,152.547069 73.6037631,152.547069 66.679173,148.518219 L20.7090131,121.771966 C13.8534465,117.783276 9.63596084,110.450087 9.63596084,102.518603 L9.63596084,48.7278476 C9.63596084,40.7963633 13.8534465,33.4631746 20.7090131,29.4744845 L66.679173,2.72823118 C73.6037631,-1.30061795 82.1584784,-1.30061795 89.0830685,2.72823118 Z" id="Polygon-Copy-3" stroke="url(#linearGradient-4)" stroke-width="2.5" opacity="0.4"/>
                        <g id="Group-8" transform="translate(70.702915, 42.372608) rotate(-11.000000) translate(-70.702915, -42.372608) translate(4.775763, 13.700794)"/>
                    </g>
                    <g id="Page-1" transform="translate(44.201159, 28.671814)">
                        <g id="Group-19" transform="translate(0.000000, 0.192564)">
                            <g id="Group-9" transform="translate(35.200024, 0.000000)">
                                <mask id="mask-6" fill="white">
                                    <use xlink:href="#path-5"/>
                                </mask>
                                <g id="Clip-8"/>
                            </g>
                            <g id="Group-12" transform="translate(19.200013, 53.669275)">
                                <mask id="mask-8" fill="white">
                                    <use xlink:href="#path-7"/>
                                </mask>
                                <g id="Clip-11"/>
                            </g>
                            <g id="Group-15" transform="translate(0.000000, 52.978254)">
                                <mask id="mask-10" fill="white">
                                    <use xlink:href="#path-9"/>
                                </mask>
                                <g id="Clip-14"/>
                            </g>
                            <g id="Group-18" transform="translate(25.600018, 18.657559)">
                                <mask id="mask-12" fill="white">
                                    <use xlink:href="#path-11"/>
                                </mask>
                                <g id="Clip-17"/>
                            </g>
                        </g>
                    </g>
                    <ellipse id="Oval-Copy-4" fill="url(#linearGradient-13)" cx="116.856107" cy="40.730184" rx="1.48359043" ry="1.49507022"/>
                    <ellipse id="Oval-Copy-5" fill="url(#linearGradient-13)" cx="3.73110699" cy="39.9756625" rx="1.48359043" ry="1.49507022"/>
                    <ellipse id="Oval" fill="url(#linearGradient-13)" cx="34.4471666" cy="36.2030554" rx="1.48359043" ry="1.49507022"/>
                    <ellipse id="Oval-Copy-3" stroke="url(#linearGradient-13)" stroke-width="2.5" cx="28.4464121" cy="9.03329809" rx="2.22538565" ry="2.24260533"/>
                </g>
                <g id="Group-16" transform="translate(31.000000, 33.000000)">
                    <g id="Group-17" transform="translate(15.379310, 7.178571)">
                        <mask id="mask-16" fill="white">
                            <use xlink:href="#path-15"/>
                        </mask>
                        <use id="Oval" fill="url(#linearGradient-14)" fill-rule="nonzero" xlink:href="#path-15"/>
                        <path d="M2.59523789,2.28826709 C4.5831449,19.8889134 13.2842906,31.4226602 28.698675,36.8895074 C51.8202516,45.0897782 55.194069,58.5260879 47.8687899,77.1643945 C42.9852705,89.5899322 16.710175,91.6442526 -30.9564965,83.3273558 C-29.6744305,44.4810536 -29.0333975,25.0579025 -29.0333975,25.0579025 C-29.0333975,25.0579025 -18.490519,17.468024 2.59523789,2.28826709 Z" id="Path-2" fill="#D9355D" style="mix-blend-mode: soft-light;" opacity="0.713936942" mask="url(#mask-16)"/>
                        <path d="M14.9088198,13.7905143 C12.4512344,14.8019025 11.2803692,20.3060752 19.6463186,28.6486315 C28.0122681,36.9911878 33.0166027,32.058804 28.6779566,23.5990735 C24.3393105,15.139343 17.3664052,12.7791261 14.9088198,13.7905143 Z" id="Path-3" fill="#D9355D" style="mix-blend-mode: soft-light;" opacity="0.713936942" mask="url(#mask-16)"/>
                        <path d="M21.5670613,-1.91621536 C36.5838001,17.4806186 52.9161608,26.2701393 70.5641434,24.4523466 C88.212126,22.634554 77.1489506,12.221867 37.3746173,-6.78571429 L21.5670613,-1.91621536 Z" id="Path-8" fill="#D9355D" style="mix-blend-mode: soft-light;" opacity="0.713936942" mask="url(#mask-16)"/>
                    </g>
                    <path d="M17.6681814,54.376518 C17.9519743,54.0117482 18.4675415,53.95432 18.819733,54.2482484 C19.1719244,54.5421768 19.2273724,55.0761571 18.9435795,55.4409268 C15.5301188,59.8283762 13.8387017,64.1921992 13.8387017,68.5468712 C13.8387017,69.4551562 15.9377569,70.1144874 19.9243069,69.997142 C24.140312,69.8730426 29.9723491,68.9136735 36.3486148,67.2880293 C50.7782764,63.6091526 64.9482354,57.4404178 73.1147558,50.7129116 C81.9121445,43.4657018 87.779263,36.7363316 89.2030522,32.4264275 C90.4718077,28.5858208 87.8074241,27.2011045 80.2173522,28.9428213 C79.7757589,29.0441551 79.3384622,28.7555351 79.2406227,28.2981705 C79.1427832,27.840806 79.4214508,27.3878916 79.8630441,27.2865578 C88.4815876,25.3088345 92.5815961,27.4396645 90.7527818,32.9756065 C89.1990185,37.6789506 83.1604591,44.6049572 74.1343514,52.0405837 C65.7519854,58.9459016 51.3787485,65.2031312 36.7401222,68.935284 C30.2596792,70.5874884 24.3177614,71.5649329 19.9708386,71.6928859 C15.0627913,71.8373558 12.2007707,70.9383706 12.2007707,68.5468712 C12.2007707,63.7766514 14.0334498,59.0483752 17.6681814,54.376518 Z" id="Path-146" fill="url(#linearGradient-17)" fill-rule="nonzero"/>
                    <path d="M12.651819,53.4979333 C13.0163701,53.2206408 13.5289358,53.3019323 13.7966665,53.6795031 C14.0643973,54.0570739 13.9859089,54.5879455 13.6213578,54.8652381 C9.32055403,58.1366063 7.20816017,61.8859145 7.20816017,66.1575997 C7.20816017,67.0658847 9.30721531,67.7252159 13.2937654,67.6078706 C17.5097704,67.4837712 23.3418075,66.524402 29.7180733,64.8987578 C44.1477349,61.2198811 58.3176939,55.0511463 66.4842142,48.3236401 C75.2816029,41.0764303 81.1487214,34.3470601 82.5725106,30.037156 C83.8412661,26.1965493 81.1768826,24.8118331 73.5868107,26.5535498 C73.1452173,26.6548836 72.7079206,26.3662636 72.6100811,25.9088991 C72.5122416,25.4515345 72.7909092,24.9986201 73.2325025,24.8972863 C81.8510461,22.9195631 85.9510546,25.0503931 84.1222402,30.586335 C82.5684769,35.2896792 76.5299176,42.2156857 67.5038099,49.6513123 C59.1214439,56.5566302 44.7482069,62.8138597 30.1095806,66.5460125 C23.6291376,68.198217 17.6872198,69.1756614 13.3402971,69.3036144 C8.43224971,69.4480843 5.57022913,68.5490992 5.57022913,66.1575997 C5.57022913,61.3043932 7.95609776,57.069692 12.651819,53.4979333 Z" id="Path-146" fill="url(#linearGradient-18)" fill-rule="nonzero" transform="translate(45.060440, 46.745812) rotate(42.000000) translate(-45.060440, -46.745812) "/>
                    <path d="M23.2920137,19.6427321 C23.5992595,19.9865163 23.5792493,20.5231759 23.2473196,20.8413947 C22.91539,21.1596136 22.397236,21.1388887 22.0899902,20.7951045 C17.6328115,15.8078666 15.3793103,10.9622815 15.3793103,6.25795066 C15.3793103,3.84590684 17.6031379,3.30745551 21.0781711,4.17335176 C24.0293218,4.90870885 28.0825401,6.67076077 32.6240906,9.17462946 C42.4538038,14.5939925 52.7618107,22.4014708 59.2661861,29.7208805 C66.3041933,37.6407889 74.608241,51.2767216 78.2618704,60.9653585 C80.300134,66.3703938 80.8153653,70.2249259 79.3884184,72.1563342 C77.6855305,74.4612354 73.9414693,73.5733434 68.0989211,69.6797596 C67.7185549,69.4262765 67.6086101,68.9014276 67.8533525,68.507477 C68.0980948,68.1135263 68.6048454,67.9996549 68.9852116,68.253138 C74.1511934,71.6958453 77.1421511,72.4051412 78.0876238,71.1254203 C79.023531,69.8586467 78.5658011,66.4342924 76.7361804,61.5825331 C73.1575192,52.0926957 64.9628935,38.6364431 58.0610131,30.8697187 C51.6930973,23.7038679 41.5316271,16.0073792 31.8544479,10.6721119 C27.4244821,8.22976263 23.4890679,6.51892356 20.6950429,5.82271849 C18.117131,5.1803637 17.0172414,5.44667798 17.0172414,6.25795066 C17.0172414,10.4817662 19.0922243,14.9434929 23.2920137,19.6427321 Z" id="Path-147" fill="url(#linearGradient-19)" fill-rule="nonzero"/>
                    <path d="M26.7693674,21.4022021 C27.0766132,21.7459863 27.056603,22.2826459 26.7246734,22.6008647 C26.3927437,22.9190836 25.8745897,22.8983587 25.5673439,22.5545745 C21.1101652,17.5673366 18.856664,12.7217515 18.856664,8.01742066 C18.856664,5.60537685 21.0804916,5.06692552 24.5555249,5.93282177 C27.5066756,6.66817885 31.5598938,8.43023078 36.1014444,10.9340995 C45.9311575,16.3534625 56.2391644,24.1609408 62.7435398,31.4803505 C69.781547,39.4002589 78.0855947,53.0361916 81.7392241,62.7248285 C83.7774877,68.1298638 84.292719,71.9843959 82.8657721,73.9158042 C81.1628842,76.2207054 77.418823,75.3328135 71.5762748,71.4392296 C71.1959086,71.1857465 71.0859638,70.6608976 71.3307062,70.266947 C71.5754485,69.8729963 72.0821991,69.7591249 72.4625653,70.012608 C77.6285471,73.4553153 80.6195048,74.1646112 81.5649775,72.8848904 C82.5008847,71.6181167 82.0431549,68.1937624 80.2135341,63.3420031 C76.634873,53.8521657 68.4402472,40.3959131 61.5383668,32.6291887 C55.170451,25.4633379 45.0089808,17.7668492 35.3318016,12.4315819 C30.9018358,9.98923264 26.9664216,8.27839357 24.1723966,7.5821885 C21.5944847,6.93983371 20.4945951,7.20614798 20.4945951,8.01742066 C20.4945951,12.2412362 22.569578,16.7029629 26.7693674,21.4022021 Z" id="Path-147" fill="url(#linearGradient-20)" fill-rule="nonzero" transform="translate(51.265429, 40.358937) rotate(76.000000) translate(-51.265429, -40.358937) "/>
                    <ellipse id="Oval" fill="#FFFFFF" cx="12.1034483" cy="44.5" rx="3.27586207" ry="3.39285714"/>
                    <ellipse id="Oval-Copy-9" fill="#FFFFFF" cx="44.862069" cy="24.1428571" rx="3.27586207" ry="3.39285714"/>
                    <ellipse id="Oval-Copy-10" fill="#FFFFFF" cx="31.7586207" cy="78.4285714" rx="3.27586207" ry="3.39285714"/>
                    <ellipse id="Oval-Copy-11" fill="#FFFFFF" cx="67.7931034" cy="37.7142857" rx="3.27586207" ry="3.39285714"/>
                    <ellipse id="Oval-Copy-12" fill="#FFFFFF" cx="87.4482759" cy="37.7142857" rx="3.27586207" ry="3.39285714"/>
                    <ellipse id="Oval-Copy-13" fill="#FFFFFF" cx="38.3103448" cy="58.0714286" rx="3.27586207" ry="3.39285714"/>
                </g>
            </g>
        </g>
    </g>
</svg>