<svg xmlns="http://www.w3.org/2000/svg" xmlns:xlink="http://www.w3.org/1999/xlink" width="150px" height="155px" viewBox="0 0 150 155" version="1.1">
    <!-- Generator: Sketch 52.5 (67469) - http://www.bohemiancoding.com/sketch -->
    <title>Public</title>
    <desc>Created with Sketch.</desc>
    <defs>
        <linearGradient x1="22.5181731%" y1="12.8216691%" x2="100%" y2="60.6354535%" id="linearGradient-1">
            <stop stop-color="#112E61" stop-opacity="0" offset="0%"/>
            <stop stop-color="#112E61" offset="100%"/>
        </linearGradient>
        <path d="M95.3694621,18.0247717 L135.577492,41.3027048 C142.45647,45.2852031 146.692052,52.6315332 146.692052,60.5801584 L146.692052,107.24205 C146.692052,115.190675 142.45647,122.537005 135.577492,126.519504 L95.3694621,149.797437 C88.4659034,153.794165 79.9521421,153.794165 73.0485834,149.797437 L32.840554,126.519504 C25.9615751,122.537005 21.7259934,115.190675 21.7259934,107.24205 L21.7259934,60.5801584 C21.7259934,52.6315332 25.9615751,45.2852031 32.840554,41.3027048 L73.0485834,18.0247717 C79.9521421,14.0280432 88.4659034,14.0280432 95.3694621,18.0247717 Z" id="path-2"/>
        <filter x="-12.0%" y="-10.9%" width="124.0%" height="121.8%" filterUnits="objectBoundingBox" id="filter-3">
            <feGaussianBlur stdDeviation="10" in="SourceAlpha" result="shadowBlurInner1"/>
            <feOffset dx="-10" dy="0" in="shadowBlurInner1" result="shadowOffsetInner1"/>
            <feComposite in="shadowOffsetInner1" in2="SourceAlpha" operator="arithmetic" k2="-1" k3="1" result="shadowInnerInner1"/>
            <feColorMatrix values="0 0 0 0 0   0 0 0 0 0.0274509804   0 0 0 0 0.133333333  0 0 0 0.24 0" type="matrix" in="shadowInnerInner1"/>
        </filter>
        <linearGradient x1="100%" y1="79.2196502%" x2="4.74372584%" y2="20.6260934%" id="linearGradient-4">
            <stop stop-color="#4798FF" offset="0%"/>
            <stop stop-color="#2B3362" stop-opacity="0" offset="100%"/>
        </linearGradient>
        <linearGradient x1="50%" y1="-108.803545%" x2="-23.1075827%" y2="132.109278%" id="linearGradient-5">
            <stop stop-color="#55CFEA" offset="0%"/>
            <stop stop-color="#025CDD" offset="100%"/>
        </linearGradient>
        <linearGradient x1="50%" y1="0%" x2="50%" y2="97.0443461%" id="linearGradient-6">
            <stop stop-color="#2D5BC8" offset="0%"/>
            <stop stop-color="#0952BA" offset="100%"/>
        </linearGradient>
        <linearGradient x1="50%" y1="0%" x2="50%" y2="100%" id="linearGradient-7">
            <stop stop-color="#4ABFE8" offset="0%"/>
            <stop stop-color="#025CDD" offset="100%"/>
        </linearGradient>
        <linearGradient x1="22.2608726%" y1="4.88213568%" x2="63.3439852%" y2="83.0154485%" id="linearGradient-8">
            <stop stop-color="#F59D69" offset="0%"/>
            <stop stop-color="#ED466F" offset="100%"/>
        </linearGradient>
        <linearGradient x1="92.1493794%" y1="64.5068418%" x2="16.4151278%" y2="106.720526%" id="linearGradient-9">
            <stop stop-color="#DB8821" offset="0%"/>
            <stop stop-color="#FAD165" offset="100%"/>
        </linearGradient>
        <linearGradient x1="63.8330311%" y1="78.6297402%" x2="24.4353003%" y2="0%" id="linearGradient-10">
            <stop stop-color="#F4A440" offset="0%"/>
            <stop stop-color="#FAD165" offset="100%"/>
        </linearGradient>
    </defs>
    <g id="Page-1" stroke="none" stroke-width="1" fill="none" fill-rule="evenodd">
        <g id="Development" transform="translate(-418.000000, -843.000000)">
            <g id="Public" transform="translate(408.000000, 836.000000)">
                <g id="Group-28" transform="translate(0.228477, 0.504717)">
                    <rect id="Rectangle-Copy-8" fill-rule="nonzero" x="0" y="0" width="169.312914" height="169.677673"/>
                    <g id="Polygon">
                        <use fill="url(#linearGradient-1)" fill-rule="evenodd" xlink:href="#path-2"/>
                        <use fill="black" fill-opacity="1" filter="url(#filter-3)" xlink:href="#path-2"/>
                    </g>
                    <path d="M95.1382152,11.7001283 L141.108375,38.3139744 C147.987354,42.2964728 152.222936,49.6428028 152.222936,57.591428 L152.222936,110.925146 C152.222936,118.873771 147.987354,126.220101 141.108375,130.202599 L95.1382152,156.816445 C88.2346565,160.813174 79.7208951,160.813174 72.8173364,156.816445 L26.8471765,130.202599 C19.9681977,126.220101 15.7326159,118.873771 15.7326159,110.925146 L15.7326159,57.591428 C15.7326159,49.6428028 19.9681977,42.2964728 26.8471765,38.3139744 L72.8173364,11.7001283 C79.7208951,7.70339981 88.2346565,7.70339981 95.1382152,11.7001283 Z" id="Polygon-Copy" stroke="url(#linearGradient-4)" stroke-width="2.5"/>
                    <path d="M96.6365596,11.7001283 L142.606719,38.3139744 C149.485698,42.2964728 153.72128,49.6428028 153.72128,57.591428 L153.72128,110.925146 C153.72128,118.873771 149.485698,126.220101 142.606719,130.202599 L96.6365596,156.816445 C89.7330008,160.813174 81.2192395,160.813174 74.3156808,156.816445 L28.3455209,130.202599 C21.466542,126.220101 17.2309603,118.873771 17.2309603,110.925146 L17.2309603,57.591428 C17.2309603,49.6428028 21.466542,42.2964728 28.3455209,38.3139744 L74.3156808,11.7001283 C81.2192395,7.70339981 89.7330008,7.70339981 96.6365596,11.7001283 Z" id="Polygon-Copy-2" stroke="url(#linearGradient-4)" stroke-width="2.5" opacity="0.4"/>
                    <path d="M151.277761,96.8366451 L153.104915,97.894453 C153.334215,98.0272029 153.475401,98.2720806 153.475401,98.5370347 L153.475401,100.656185 C153.475401,100.921139 153.334215,101.166016 153.104915,101.298766 L151.277761,102.356574 C151.047643,102.489799 150.763851,102.489799 150.533732,102.356574 L148.706578,101.298766 C148.477279,101.166016 148.336093,100.921139 148.336093,100.656185 L148.336093,98.5370347 C148.336093,98.2720806 148.477279,98.0272029 148.706578,97.894453 L150.533732,96.8366451 C150.763851,96.7034208 151.047643,96.7034208 151.277761,96.8366451 Z" id="Polygon-2-Copy-6" fill="url(#linearGradient-5)"/>
                    <path d="M157.271139,127.618878 L159.098293,128.676686 C159.327592,128.809436 159.468778,129.054313 159.468778,129.319267 L159.468778,131.438417 C159.468778,131.703371 159.327592,131.948249 159.098293,132.080999 L157.271139,133.138807 C157.04102,133.272031 156.757228,133.272031 156.52711,133.138807 L154.699956,132.080999 C154.470656,131.948249 154.32947,131.703371 154.32947,131.438417 L154.32947,129.319267 C154.32947,129.054313 154.470656,128.809436 154.699956,128.676686 L156.52711,127.618878 C156.757228,127.485654 157.04102,127.485654 157.271139,127.618878 Z" id="Polygon-2-Copy-15" fill="url(#linearGradient-5)"/>
                    <path d="M145.562085,107.462723 L146.168595,107.813855 C146.397894,107.946605 146.53908,108.191482 146.53908,108.456436 L146.53908,109.162234 C146.53908,109.427188 146.397894,109.672066 146.168595,109.804815 L145.562085,110.155947 C145.331966,110.289171 145.048174,110.289171 144.818055,110.155947 L144.211545,109.804815 C143.982246,109.672066 143.84106,109.427188 143.84106,109.162234 L143.84106,108.456436 C143.84106,108.191482 143.982246,107.946605 144.211545,107.813855 L144.818055,107.462723 C145.048174,107.329499 145.331966,107.329499 145.562085,107.462723 Z" id="Polygon-2-Copy-2" fill="url(#linearGradient-5)"/>
                    <path d="M12.2094356,81.9359934 L12.8159461,82.287125 C13.0452453,82.419875 13.1864314,82.6647526 13.1864314,82.9297068 L13.1864314,83.6355041 C13.1864314,83.9004583 13.0452453,84.145336 12.8159461,84.2780859 L12.2094356,84.6292175 C11.979317,84.7624418 11.695525,84.7624418 11.4654064,84.6292175 L10.8588959,84.2780859 C10.6295967,84.145336 10.4884106,83.9004583 10.4884106,83.6355041 L10.4884106,82.9297068 C10.4884106,82.6647526 10.6295967,82.419875 10.8588959,82.287125 L11.4654064,81.9359934 C11.695525,81.8027692 11.979317,81.8027692 12.2094356,81.9359934 Z" id="Polygon-2-Copy-7" fill="url(#linearGradient-5)"/>
                    <path d="M50.4172171,18.1191695 L51.0237275,18.4703011 C51.2530268,18.6030511 51.3942129,18.8479287 51.3942129,19.1128829 L51.3942129,19.8186802 C51.3942129,20.0836344 51.2530268,20.3285121 51.0237275,20.461262 L50.4172171,20.8123936 C50.1870985,20.9456179 49.9033064,20.9456179 49.6731878,20.8123936 L49.0666774,20.461262 C48.8373781,20.3285121 48.6961921,20.0836344 48.6961921,19.8186802 L48.6961921,19.1128829 C48.6961921,18.8479287 48.8373781,18.6030511 49.0666774,18.4703011 L49.6731878,18.1191695 C49.9033064,17.9859453 50.1870985,17.9859453 50.4172171,18.1191695 Z" id="Polygon-2-Copy-14" fill="url(#linearGradient-5)"/>
                    <path d="M39.9194345,15.1160249 L41.265745,15.8954545 C41.4950443,16.0282044 41.6362304,16.2730821 41.6362304,16.5380362 L41.6362304,18.1004296 C41.6362304,18.3653837 41.4950443,18.6102614 41.265745,18.7430114 L39.9194345,19.5224409 C39.6893159,19.6556652 39.4055238,19.6556652 39.1754052,19.5224409 L37.8290946,18.7430114 C37.5997953,18.6102614 37.4586093,18.3653837 37.4586093,18.1004296 L37.4586093,16.5380362 C37.4586093,16.2730821 37.5997953,16.0282044 37.8290946,15.8954545 L39.1754052,15.1160249 C39.4055238,14.9828006 39.6893159,14.9828006 39.9194345,15.1160249 Z" id="Polygon-2-Copy" fill="url(#linearGradient-5)"/>
                    <path d="M95.1382152,11.7001283 L141.108375,38.3139744 C147.987354,42.2964728 152.222936,49.6428028 152.222936,57.591428 L152.222936,110.925146 C152.222936,118.873771 147.987354,126.220101 141.108375,130.202599 L95.1382152,156.816445 C88.2346565,160.813174 79.7208951,160.813174 72.8173364,156.816445 L26.8471765,130.202599 C19.9681977,126.220101 15.7326159,118.873771 15.7326159,110.925146 L15.7326159,57.591428 C15.7326159,49.6428028 19.9681977,42.2964728 26.8471765,38.3139744 L72.8173364,11.7001283 C79.7208951,7.70339981 88.2346565,7.70339981 95.1382152,11.7001283 Z" id="Polygon-Copy" stroke="url(#linearGradient-4)" stroke-width="2.5"/>
                    <path d="M96.6365596,11.7001283 L142.606719,38.3139744 C149.485698,42.2964728 153.72128,49.6428028 153.72128,57.591428 L153.72128,110.925146 C153.72128,118.873771 149.485698,126.220101 142.606719,130.202599 L96.6365596,156.816445 C89.7330008,160.813174 81.2192395,160.813174 74.3156808,156.816445 L28.3455209,130.202599 C21.466542,126.220101 17.2309603,118.873771 17.2309603,110.925146 L17.2309603,57.591428 C17.2309603,49.6428028 21.466542,42.2964728 28.3455209,38.3139744 L74.3156808,11.7001283 C81.2192395,7.70339981 89.7330008,7.70339981 96.6365596,11.7001283 Z" id="Polygon-Copy-2" stroke="url(#linearGradient-4)" stroke-width="2.5" opacity="0.4"/>
                    <path d="M151.277761,96.8366451 L153.104915,97.894453 C153.334215,98.0272029 153.475401,98.2720806 153.475401,98.5370347 L153.475401,100.656185 C153.475401,100.921139 153.334215,101.166016 153.104915,101.298766 L151.277761,102.356574 C151.047643,102.489799 150.763851,102.489799 150.533732,102.356574 L148.706578,101.298766 C148.477279,101.166016 148.336093,100.921139 148.336093,100.656185 L148.336093,98.5370347 C148.336093,98.2720806 148.477279,98.0272029 148.706578,97.894453 L150.533732,96.8366451 C150.763851,96.7034208 151.047643,96.7034208 151.277761,96.8366451 Z" id="Polygon-2-Copy-6" fill="url(#linearGradient-5)"/>
                    <path d="M157.271139,127.618878 L159.098293,128.676686 C159.327592,128.809436 159.468778,129.054313 159.468778,129.319267 L159.468778,131.438417 C159.468778,131.703371 159.327592,131.948249 159.098293,132.080999 L157.271139,133.138807 C157.04102,133.272031 156.757228,133.272031 156.52711,133.138807 L154.699956,132.080999 C154.470656,131.948249 154.32947,131.703371 154.32947,131.438417 L154.32947,129.319267 C154.32947,129.054313 154.470656,128.809436 154.699956,128.676686 L156.52711,127.618878 C156.757228,127.485654 157.04102,127.485654 157.271139,127.618878 Z" id="Polygon-2-Copy-15" fill="url(#linearGradient-5)"/>
                    <path d="M145.562085,107.462723 L146.168595,107.813855 C146.397894,107.946605 146.53908,108.191482 146.53908,108.456436 L146.53908,109.162234 C146.53908,109.427188 146.397894,109.672066 146.168595,109.804815 L145.562085,110.155947 C145.331966,110.289171 145.048174,110.289171 144.818055,110.155947 L144.211545,109.804815 C143.982246,109.672066 143.84106,109.427188 143.84106,109.162234 L143.84106,108.456436 C143.84106,108.191482 143.982246,107.946605 144.211545,107.813855 L144.818055,107.462723 C145.048174,107.329499 145.331966,107.329499 145.562085,107.462723 Z" id="Polygon-2-Copy-2" fill="url(#linearGradient-5)"/>
                    <path d="M12.2094356,81.9359934 L12.8159461,82.287125 C13.0452453,82.419875 13.1864314,82.6647526 13.1864314,82.9297068 L13.1864314,83.6355041 C13.1864314,83.9004583 13.0452453,84.145336 12.8159461,84.2780859 L12.2094356,84.6292175 C11.979317,84.7624418 11.695525,84.7624418 11.4654064,84.6292175 L10.8588959,84.2780859 C10.6295967,84.145336 10.4884106,83.9004583 10.4884106,83.6355041 L10.4884106,82.9297068 C10.4884106,82.6647526 10.6295967,82.419875 10.8588959,82.287125 L11.4654064,81.9359934 C11.695525,81.8027692 11.979317,81.8027692 12.2094356,81.9359934 Z" id="Polygon-2-Copy-7" fill="url(#linearGradient-5)"/>
                    <path d="M50.4172171,18.1191695 L51.0237275,18.4703011 C51.2530268,18.6030511 51.3942129,18.8479287 51.3942129,19.1128829 L51.3942129,19.8186802 C51.3942129,20.0836344 51.2530268,20.3285121 51.0237275,20.461262 L50.4172171,20.8123936 C50.1870985,20.9456179 49.9033064,20.9456179 49.6731878,20.8123936 L49.0666774,20.461262 C48.8373781,20.3285121 48.6961921,20.0836344 48.6961921,19.8186802 L48.6961921,19.1128829 C48.6961921,18.8479287 48.8373781,18.6030511 49.0666774,18.4703011 L49.6731878,18.1191695 C49.9033064,17.9859453 50.1870985,17.9859453 50.4172171,18.1191695 Z" id="Polygon-2-Copy-14" fill="url(#linearGradient-5)"/>
                    <path d="M39.9194345,15.1160249 L41.265745,15.8954545 C41.4950443,16.0282044 41.6362304,16.2730821 41.6362304,16.5380362 L41.6362304,18.1004296 C41.6362304,18.3653837 41.4950443,18.6102614 41.265745,18.7430114 L39.9194345,19.5224409 C39.6893159,19.6556652 39.4055238,19.6556652 39.1754052,19.5224409 L37.8290946,18.7430114 C37.5997953,18.6102614 37.4586093,18.3653837 37.4586093,18.1004296 L37.4586093,16.5380362 C37.4586093,16.2730821 37.5997953,16.0282044 37.8290946,15.8954545 L39.1754052,15.1160249 C39.4055238,14.9828006 39.6893159,14.9828006 39.9194345,15.1160249 Z" id="Polygon-2-Copy" fill="url(#linearGradient-5)"/>
                </g>
                <g id="Group-5" transform="translate(42.000000, 46.000000)">
                    <g id="Group-4" transform="translate(33.025568, 18.491379)">
                        <path d="M26.7728942,24.6349885 C34.6699379,30.1141358 39.4846312,39.5585093 39.4846312,49.7420882 L39.4846312,57.508089 C39.4846312,59.2760134 38.6225087,60.9328647 37.1746756,61.9474267 L35.4731133,63.1397883 L3.96306818,38.4852937 L3.96306818,32.5197253 C3.96306818,30.2856451 4.50787177,28.0907262 5.54298266,26.1545248 C7.68535372,22.147165 11.5413261,19.8648101 15.5420328,19.7624248 C14.9058319,18.8342049 14.3531012,17.7993043 13.9084329,16.6713282 C11.3428039,10.1631776 13.34614,3.02104064 18.3830093,0.71891893 C23.4198787,-1.58320278 29.5829213,1.82645737 32.1485504,8.33460803 C34.7141794,14.8427587 32.7108433,21.9848956 27.6739739,24.2870173 C27.3772015,24.4226584 27.0765196,24.5384706 26.7728942,24.6349885 Z" id="Path-Copy" fill="url(#linearGradient-6)"/>
                        <path d="M22.809826,27.4798161 C30.7068697,32.9589634 35.521563,42.4033369 35.521563,52.5869158 L35.521563,63.1735641 L0,41.3301213 L0,35.3645529 C0,33.1304727 0.544803591,30.9355538 1.57991447,28.9993524 C3.72228554,24.9919925 7.57825787,22.7096377 11.5789647,22.6072523 C10.9427637,21.6790325 10.390033,20.6441319 9.94536471,19.5161558 C7.37973568,13.0080052 9.38307178,5.86586823 14.4199411,3.56374652 C19.4568105,1.2616248 25.6198532,4.67128495 28.1854822,11.1794356 C30.7511112,17.6875863 28.7477751,24.8297232 23.7109058,27.1318449 C23.4141334,27.267486 23.1134514,27.3832982 22.809826,27.4798161 Z" id="Path" fill="url(#linearGradient-7)"/>
                    </g>
                    <g id="Group-4-Copy">
                        <path d="M26.7728942,24.6349885 C34.6699379,30.1141358 39.4846312,39.5585093 39.4846312,49.7420882 L39.4846312,57.508089 C39.4846312,59.2760134 38.6225087,60.9328647 37.1746756,61.9474267 L35.4731133,63.1397883 L3.96306818,38.4852937 L3.96306818,32.5197253 C3.96306818,30.2856451 4.50787177,28.0907262 5.54298266,26.1545248 C7.68535372,22.147165 11.5413261,19.8648101 15.5420328,19.7624248 C14.9058319,18.8342049 14.3531012,17.7993043 13.9084329,16.6713282 C11.3428039,10.1631776 13.34614,3.02104064 18.3830093,0.71891893 C23.4198787,-1.58320278 29.5829213,1.82645737 32.1485504,8.33460803 C34.7141794,14.8427587 32.7108433,21.9848956 27.6739739,24.2870173 C27.3772015,24.4226584 27.0765196,24.5384706 26.7728942,24.6349885 Z" id="Path-Copy" fill="#D9355D"/>
                        <path d="M22.809826,27.4798161 C30.7068697,32.9589634 35.521563,42.4033369 35.521563,52.5869158 L35.521563,63.1735641 L0,41.3301213 L0,35.3645529 C0,33.1304727 0.544803591,30.9355538 1.57991447,28.9993524 C3.72228554,24.9919925 7.57825787,22.7096377 11.5789647,22.6072523 C10.9427637,21.6790325 10.390033,20.6441319 9.94536471,19.5161558 C7.37973568,13.0080052 9.38307178,5.86586823 14.4199411,3.56374652 C19.4568105,1.2616248 25.6198532,4.67128495 28.1854822,11.1794356 C30.7511112,17.6875863 28.7477751,24.8297232 23.7109058,27.1318449 C23.4141334,27.267486 23.1134514,27.3832982 22.809826,27.4798161 Z" id="Path" fill="url(#linearGradient-8)"/>
                    </g>
                    <g id="Group-4-Copy-2" transform="translate(9.247159, 15.646552)" fill-rule="nonzero">
                        <path d="M26.7728942,24.6349885 C34.6699379,30.1141358 39.4846312,39.5585093 39.4846312,49.7420882 L39.4846312,57.508089 C39.4846312,59.2760134 38.6225087,60.9328647 37.1746756,61.9474267 L35.4731133,63.1397883 L3.96306818,38.4852937 L3.96306818,32.5197253 C3.96306818,30.2856451 4.50787177,28.0907262 5.54298266,26.1545248 C7.68535372,22.147165 11.5413261,19.8648101 15.5420328,19.7624248 C14.9058319,18.8342049 14.3531012,17.7993043 13.9084329,16.6713282 C11.3428039,10.1631776 13.34614,3.02104064 18.3830093,0.71891893 C23.4198787,-1.58320278 29.5829213,1.82645737 32.1485504,8.33460803 C34.7141794,14.8427587 32.7108433,21.9848956 27.6739739,24.2870173 C27.3772015,24.4226584 27.0765196,24.5384706 26.7728942,24.6349885 Z" id="Path-Copy" fill="url(#linearGradient-9)"/>
                        <path d="M22.809826,27.4798161 C30.7068697,32.9589634 35.521563,42.4033369 35.521563,52.5869158 L35.521563,63.1735641 L0,41.3301213 L0,35.3645529 C0,33.1304727 0.544803591,30.9355538 1.57991447,28.9993524 C3.72228554,24.9919925 7.57825787,22.7096377 11.5789647,22.6072523 C10.9427637,21.6790325 10.390033,20.6441319 9.94536471,19.5161558 C7.37973568,13.0080052 9.38307178,5.86586823 14.4199411,3.56374652 C19.4568105,1.2616248 25.6198532,4.67128495 28.1854822,11.1794356 C30.7511112,17.6875863 28.7477751,24.8297232 23.7109058,27.1318449 C23.4141334,27.267486 23.1134514,27.3832982 22.809826,27.4798161 Z" id="Path" fill="url(#linearGradient-10)"/>
                    </g>
                </g>
            </g>
        </g>
    </g>
</svg>