<svg xmlns="http://www.w3.org/2000/svg" xmlns:xlink="http://www.w3.org/1999/xlink" width="152px" height="158px" viewBox="0 0 152 158" version="1.1">
    <!-- Generator: Sketch 52.5 (67469) - http://www.bohemiancoding.com/sketch -->
    <title>Scalable</title>
    <desc>Created with Sketch.</desc>
    <defs>
        <linearGradient x1="22.5181731%" y1="12.8216691%" x2="100%" y2="60.6354535%" id="linearGradient-1">
            <stop stop-color="#112E61" stop-opacity="0" offset="0%"/>
            <stop stop-color="#112E61" offset="100%"/>
        </linearGradient>
        <path d="M79.5778305,8.95972394 L119.78586,32.237657 C126.664839,36.2201553 130.90042,43.5664854 130.90042,51.5151106 L130.90042,98.1770022 C130.90042,106.125627 126.664839,113.471957 119.78586,117.454456 L79.5778305,140.732389 C72.6742718,144.729117 64.1605104,144.729117 57.2569517,140.732389 L17.0489223,117.454456 C10.1699435,113.471957 5.93436173,106.125627 5.93436173,98.1770022 L5.93436173,51.5151106 C5.93436173,43.5664854 10.1699435,36.2201553 17.0489223,32.237657 L57.2569517,8.95972394 C64.1605104,4.96299541 72.6742718,4.96299541 79.5778305,8.95972394 Z" id="path-2"/>
        <filter x="-12.0%" y="-10.9%" width="124.0%" height="121.8%" filterUnits="objectBoundingBox" id="filter-3">
            <feGaussianBlur stdDeviation="10" in="SourceAlpha" result="shadowBlurInner1"/>
            <feOffset dx="-10" dy="0" in="shadowBlurInner1" result="shadowOffsetInner1"/>
            <feComposite in="shadowOffsetInner1" in2="SourceAlpha" operator="arithmetic" k2="-1" k3="1" result="shadowInnerInner1"/>
            <feColorMatrix values="0 0 0 0 0   0 0 0 0 0.0274509804   0 0 0 0 0.133333333  0 0 0 0.24 0" type="matrix" in="shadowInnerInner1"/>
        </filter>
        <linearGradient x1="100%" y1="79.2196502%" x2="4.74372584%" y2="20.6260934%" id="linearGradient-4">
            <stop stop-color="#ED466F" offset="0%"/>
            <stop stop-color="#2B3362" stop-opacity="0" offset="100%"/>
        </linearGradient>
        <linearGradient x1="100%" y1="96.0238073%" x2="131.556486%" y2="-77.0140706%" id="linearGradient-5">
            <stop stop-color="#ED466F" offset="0%"/>
            <stop stop-color="#FAD165" offset="100%"/>
        </linearGradient>
        <linearGradient x1="100%" y1="96.0238073%" x2="144.859865%" y2="0%" id="linearGradient-6">
            <stop stop-color="#ED466F" offset="0%"/>
            <stop stop-color="#FAD165" offset="100%"/>
        </linearGradient>
        <linearGradient x1="114.561981%" y1="88.4730975%" x2="-132.744334%" y2="-36.4478173%" id="linearGradient-7">
            <stop stop-color="#F59D69" offset="0%"/>
            <stop stop-color="#ED466F" offset="100%"/>
        </linearGradient>
        <path d="M0,10.4225136 L0,48.7198225 C7.78052175e-16,55.0731006 3.34925309,60.955825 8.81263905,64.198595 L42.2405684,84.0396032 C45.0901318,85.7309497 48.7712665,84.7920294 50.4626129,81.942466 C51.0127168,81.0156565 51.3030221,79.9577833 51.3030221,78.8800124 L51.3030221,40.1540724 C51.3030221,33.7394427 47.8893088,27.8095306 42.3421505,24.5882716 L9.01304283,5.2339133 C6.14745802,3.56985569 2.47545732,4.54388595 0.811399714,7.40947076 C0.279933452,8.32468045 1.64674863e-15,9.36418227 1.77635684e-15,10.4225136 Z" id="path-8"/>
        <linearGradient x1="-1068.87686%" y1="100%" x2="-1616.07038%" y2="407.748257%" id="linearGradient-10">
            <stop stop-color="#F59D69" offset="0%"/>
            <stop stop-color="#ED466F" offset="100%"/>
        </linearGradient>
    </defs>
    <g id="Page-1" stroke="none" stroke-width="1" fill="none" fill-rule="evenodd">
        <g id="Development" transform="translate(-726.000000, -382.000000)">
            <g id="Scalable" transform="translate(714.000000, 376.000000)">
                <g id="Group-99" transform="translate(3.733444, 0.872642)">
                    <rect id="Rectangle-Copy-6" fill-rule="nonzero" x="0" y="0" width="169.312914" height="169.677673"/>
                    <g id="Group-Copy" transform="translate(16.481788, 10.511006)">
                        <g id="Polygon-Copy-5">
                            <use fill="url(#linearGradient-1)" fill-rule="evenodd" xlink:href="#path-2"/>
                            <use fill="black" fill-opacity="1" filter="url(#filter-3)" xlink:href="#path-2"/>
                        </g>
                        <path d="M79.4055993,2.69069437 L125.375759,29.3045405 C132.254738,33.2870388 136.49032,40.6333689 136.49032,48.5819941 L136.49032,101.915712 C136.49032,109.864337 132.254738,117.210667 125.375759,121.193165 L79.4055993,147.807011 C72.5020406,151.80374 63.9882792,151.80374 57.0847205,147.807011 L11.1145606,121.193165 C4.23558176,117.210667 5.06429724e-14,109.864337 3.90798505e-14,101.915712 L0,48.5819941 C-8.03322323e-15,40.6333689 4.23558176,33.2870388 11.1145606,29.3045405 L57.0847205,2.69069437 C63.9882792,-1.30603415 72.5020406,-1.30603415 79.4055993,2.69069437 Z" id="Polygon-Copy-4" stroke="url(#linearGradient-4)" stroke-width="2.5"/>
                        <path d="M80.8891897,2.69069437 L126.85935,29.3045405 C133.738328,33.2870388 137.97391,40.6333689 137.97391,48.5819941 L137.97391,101.915712 C137.97391,109.864337 133.738328,117.210667 126.85935,121.193165 L80.8891897,147.807011 C73.985631,151.80374 65.4718697,151.80374 58.568311,147.807011 L12.598151,121.193165 C5.71917219,117.210667 1.48359043,109.864337 1.48359043,101.915712 L1.48359043,48.5819941 C1.48359043,40.6333689 5.71917219,33.2870388 12.598151,29.3045405 L58.568311,2.69069437 C65.4718697,-1.30603415 73.985631,-1.30603415 80.8891897,2.69069437 Z" id="Polygon-Copy-3" stroke="url(#linearGradient-4)" stroke-width="2.5" opacity="0.4"/>
                    </g>
                    <ellipse id="Oval-Copy-3" stroke="url(#linearGradient-5)" stroke-width="2.5" cx="58.4132996" cy="8.98857879" rx="2.22538565" ry="2.23150332"/>
                    <path d="M11.9317349,57.0449785 L13.7588889,58.1027863 C13.9881882,58.2355362 14.1293742,58.4804139 14.1293742,58.7453681 L14.1293742,60.8645179 C14.1293742,61.1294721 13.9881882,61.3743498 13.7588889,61.5070997 L11.9317349,62.5649076 C11.7016163,62.6981319 11.4178242,62.6981319 11.1877056,62.5649076 L9.36055158,61.5070997 C9.13125228,61.3743498 8.99006623,61.1294721 8.99006623,60.8645179 L8.99006623,58.7453681 C8.99006623,58.4804139 9.13125228,58.2355362 9.36055158,58.1027863 L11.1877056,57.0449785 C11.4178242,56.9117542 11.7016163,56.9117542 11.9317349,57.0449785 Z" id="Polygon-2-Copy-3" fill="url(#linearGradient-6)"/>
                    <path d="M157.271139,146.388532 L159.098293,147.44634 C159.327592,147.57909 159.468778,147.823967 159.468778,148.088922 L159.468778,150.208071 C159.468778,150.473026 159.327592,150.717903 159.098293,150.850653 L157.271139,151.908461 C157.04102,152.041685 156.757228,152.041685 156.52711,151.908461 L154.699956,150.850653 C154.470656,150.717903 154.32947,150.473026 154.32947,150.208071 L154.32947,148.088922 C154.32947,147.823967 154.470656,147.57909 154.699956,147.44634 L156.52711,146.388532 C156.757228,146.255308 157.04102,146.255308 157.271139,146.388532 Z" id="Polygon-2-Copy-13" fill="url(#linearGradient-6)"/>
                    <path d="M141.806852,14.3652387 L143.153162,15.1446683 C143.382462,15.2774182 143.523648,15.5222959 143.523648,15.7872501 L143.523648,17.3496434 C143.523648,17.6145976 143.382462,17.8594753 143.153162,17.9922252 L141.806852,18.7716548 C141.576733,18.9048791 141.292941,18.9048791 141.062822,18.7716548 L139.716512,17.9922252 C139.487213,17.8594753 139.346026,17.6145976 139.346026,17.3496434 L139.346026,15.7872501 C139.346026,15.5222959 139.487213,15.2774182 139.716512,15.1446683 L141.062822,14.3652387 C141.292941,14.2320144 141.576733,14.2320144 141.806852,14.3652387 Z" id="Polygon-2-Copy-8" fill="url(#linearGradient-6)"/>
                    <path d="M131.318441,152.509893 L132.664752,153.289322 C132.894051,153.422072 133.035237,153.66695 133.035237,153.931904 L133.035237,155.494297 C133.035237,155.759252 132.894051,156.004129 132.664752,156.136879 L131.318441,156.916309 C131.088322,157.049533 130.80453,157.049533 130.574412,156.916309 L129.228101,156.136879 C128.998802,156.004129 128.857616,155.759252 128.857616,155.494297 L128.857616,153.931904 C128.857616,153.66695 128.998802,153.422072 129.228101,153.289322 L130.574412,152.509893 C130.80453,152.376669 131.088322,152.376669 131.318441,152.509893 Z" id="Polygon-2-Copy-12" fill="url(#linearGradient-6)"/>
                    <path d="M24.9453628,57.16005 L25.5518732,57.5111816 C25.7811725,57.6439316 25.9223586,57.8888092 25.9223586,58.1537634 L25.9223586,58.8595607 C25.9223586,59.1245149 25.7811725,59.3693926 25.5518732,59.5021425 L24.9453628,59.8532741 C24.7152442,59.9864984 24.4314521,59.9864984 24.2013335,59.8532741 L23.5948231,59.5021425 C23.3655238,59.3693926 23.2243377,59.1245149 23.2243377,58.8595607 L23.2243377,58.1537634 C23.2243377,57.8888092 23.3655238,57.6439316 23.5948231,57.5111816 L24.2013335,57.16005 C24.4314521,57.0268258 24.7152442,57.0268258 24.9453628,57.16005 Z" id="Polygon-2-Copy-4" fill="url(#linearGradient-6)"/>
                </g>
                <g id="Group-3" transform="translate(40.720200, 40.000000)">
                    <g id="Scalable" transform="translate(18.000000, 0.000000)">
                        <path d="M12.8865064,2.3608267 L3.13274823,8.33531682 L8.0801435,48.4457448 C8.6687662,53.2179344 11.1422711,57.5562422 14.9492177,60.4934906 L48.7696826,86.5876595 L57.8289093,80.008096 C59.3832139,78.8792308 60.3030221,77.0743845 60.3030221,75.1533953 L60.3030221,36.9874903 C60.3030221,30.6277214 56.9469774,24.7399913 51.4747313,21.4994384 L19.0777348,2.31459607 C17.164804,1.18179738 14.7823073,1.19958776 12.8865064,2.3608267 Z" id="Path-136" fill="#D9355D"/>
                        <g id="Group-2" transform="translate(0.000000, 3.064516)">
                            <mask id="mask-9" fill="white">
                                <use xlink:href="#path-8"/>
                            </mask>
                            <use id="Path-136-Copy" fill="url(#linearGradient-7)" xlink:href="#path-8"/>
                            <path d="M-7.19724794,5.46512151 C8.10557167,12.9849593 17.6122418,26.1871277 21.3227626,45.0716268 C26.8885437,73.3983755 51.1095424,85.4548536 69.2983796,54.2570657 C81.424271,33.4585404 83.769,48.2890985 76.3325664,98.7487402 L26.979357,101.591478 L-24.1608745,71.9958744 L-7.19724794,5.46512151 Z" id="Path-137" fill="#D9355D" style="mix-blend-mode: soft-light;" opacity="0.713936942" mask="url(#mask-9)"/>
                        </g>
                    </g>
                    <path d="M69,9.19354839 C69,8.34730563 70.1192881,7.66129032 71.5,7.66129032 C72.8807119,7.66129032 74,8.34730563 74,9.19354839 L74,29.5102154 C74,30.3564581 72.8807119,31.0424734 71.5,31.0424734 C70.1192881,31.0424734 69,30.3564581 69,29.5102154 L69,9.19354839 Z" id="Path-138" fill="url(#linearGradient-10)"/>
                    <path d="M15,62.8225806 C15,61.9763379 16.1192881,61.2903226 17.5,61.2903226 C18.8807119,61.2903226 20,61.9763379 20,62.8225806 L20,75.0806452 C20,75.9268879 18.8807119,76.6129032 17.5,76.6129032 C16.1192881,76.6129032 15,75.9268879 15,75.0806452 L15,62.8225806 Z" id="Path-138-Copy" fill="url(#linearGradient-10)"/>
                    <path d="M71.1942496,35.0021002 C70.4954912,34.5475266 70.2897824,33.6003844 70.7347861,32.886599 C71.1797898,32.1728136 72.1069921,31.962681 72.8057504,32.4172546 L88.4393447,42.5876089 C89.1381031,43.0421826 89.3438119,43.9893247 88.8988082,44.7031101 C88.4538045,45.4168955 87.5266022,45.6270282 86.8278438,45.1724545 L71.1942496,35.0021002 Z" id="Path-139" fill="url(#linearGradient-10)"/>
                    <path d="M2.73145546,52.5138526 C2.01038813,52.0972168 1.75648702,51.1623555 2.16435145,50.4257814 C2.57221589,49.6892072 3.48739592,49.4298459 4.20846325,49.8464816 L15.1879415,56.19047 C15.9090089,56.6071057 16.16291,57.541967 15.7550456,58.2785412 C15.3471811,59.0151153 14.4320011,59.2744767 13.7109338,58.857841 L2.73145546,52.5138526 Z" id="Path-139-Copy" fill="url(#linearGradient-10)"/>
                </g>
            </g>
        </g>
    </g>
</svg>