<svg xmlns="http://www.w3.org/2000/svg" xmlns:xlink="http://www.w3.org/1999/xlink" width="156px" height="156px" viewBox="0 0 156 156" version="1.1">
    <!-- Generator: Sketch 52.5 (67469) - http://www.bohemiancoding.com/sketch -->
    <title>syscoin developers</title>
    <desc>Created with Sketch.</desc>
    <defs>
        <linearGradient x1="22.5181731%" y1="12.8216691%" x2="100%" y2="60.6354535%" id="linearGradient-1">
            <stop stop-color="#112E61" stop-opacity="0" offset="0%"/>
            <stop stop-color="#112E61" offset="100%"/>
        </linearGradient>
        <path d="M84.9225599,9.08434043 L125.130589,32.4780841 C131.986156,36.4667742 136.203642,43.799963 136.203642,51.7314473 L136.203642,98.8171834 C136.203642,106.748668 131.986156,114.081856 125.130589,118.070547 L84.9225599,141.46429 C77.9979698,145.493139 69.4432545,145.493139 62.5186644,141.46429 L22.3106351,118.070547 C15.4550684,114.081856 11.2375828,106.748668 11.2375828,98.8171834 L11.2375828,51.7314473 C11.2375828,43.799963 15.4550684,36.4667742 22.3106351,32.4780841 L62.5186644,9.08434043 C69.4432545,5.05549129 77.9979698,5.05549129 84.9225599,9.08434043 Z" id="path-2"/>
        <filter x="-12.0%" y="-10.8%" width="124.0%" height="121.6%" filterUnits="objectBoundingBox" id="filter-3">
            <feGaussianBlur stdDeviation="10" in="SourceAlpha" result="shadowBlurInner1"/>
            <feOffset dx="-10" dy="0" in="shadowBlurInner1" result="shadowOffsetInner1"/>
            <feComposite in="shadowOffsetInner1" in2="SourceAlpha" operator="arithmetic" k2="-1" k3="1" result="shadowInnerInner1"/>
            <feColorMatrix values="0 0 0 0 0   0 0 0 0 0.0274509804   0 0 0 0 0.133333333  0 0 0 0.24 0" type="matrix" in="shadowInnerInner1"/>
        </filter>
        <linearGradient x1="100%" y1="79.2196502%" x2="4.74372584%" y2="20.6260934%" id="linearGradient-4">
            <stop stop-color="#4798FF" offset="0%"/>
            <stop stop-color="#2B3362" stop-opacity="0" offset="100%"/>
        </linearGradient>
        <linearGradient x1="50%" y1="-108.803545%" x2="-23.1075827%" y2="132.109278%" id="linearGradient-5">
            <stop stop-color="#55CFEA" offset="0%"/>
            <stop stop-color="#025CDD" offset="100%"/>
        </linearGradient>
        <linearGradient x1="50%" y1="0%" x2="50%" y2="100%" id="linearGradient-6">
            <stop stop-color="#4ABFE8" offset="0%"/>
            <stop stop-color="#025CDD" offset="100%"/>
        </linearGradient>
        <linearGradient x1="97.2478155%" y1="32.8467621%" x2="146.671951%" y2="7.94422223%" id="linearGradient-7">
            <stop stop-color="#172A68" offset="0%"/>
            <stop stop-color="#025CDD" offset="100%"/>
        </linearGradient>
        <linearGradient x1="63.8330311%" y1="78.6297402%" x2="24.4353003%" y2="0%" id="linearGradient-8">
            <stop stop-color="#F4A440" offset="0%"/>
            <stop stop-color="#FAD165" offset="100%"/>
        </linearGradient>
        <linearGradient x1="50%" y1="100%" x2="50%" y2="0%" id="linearGradient-9">
            <stop stop-color="#4ABFE8" offset="0%"/>
            <stop stop-color="#0F4798" offset="100%"/>
        </linearGradient>
        <linearGradient x1="50%" y1="-670.260916%" x2="50%" y2="-32.6893786%" id="linearGradient-10">
            <stop stop-color="#4ABFE8" offset="0%"/>
            <stop stop-color="#025CDD" offset="100%"/>
        </linearGradient>
    </defs>
    <g id="Page-1" stroke="none" stroke-width="1" fill="none" fill-rule="evenodd">
        <g id="Development" transform="translate(-707.000000, -3532.000000)">
            <g id="syscoin-developers" transform="translate(707.000000, 3534.000000)">
                <g id="Group-43">
                    <g id="Group-37">
                        <g id="Group-29-Copy">
                            <g id="Group-28" transform="translate(0.445364, 0.383648)">
                                <g id="Group-27">
                                    <g id="Polygon">
                                        <use fill="url(#linearGradient-1)" fill-rule="evenodd" xlink:href="#path-2"/>
                                        <use fill="black" fill-opacity="1" filter="url(#filter-3)" xlink:href="#path-2"/>
                                    </g>
                                    <path d="M84.6913129,2.72823118 L130.661473,29.4744845 C137.51704,33.4631746 141.734525,40.7963633 141.734525,48.7278476 L141.734525,102.518603 C141.734525,110.450087 137.51704,117.783276 130.661473,121.771966 L84.6913129,148.518219 C77.7667229,152.547069 69.2120075,152.547069 62.2874175,148.518219 L16.3172576,121.771966 C9.46169091,117.783276 5.2442053,110.450087 5.2442053,102.518603 L5.2442053,48.7278476 C5.2442053,40.7963633 9.46169091,33.4631746 16.3172576,29.4744845 L62.2874175,2.72823118 C69.2120075,-1.30061795 77.7667229,-1.30061795 84.6913129,2.72823118 Z" id="Polygon-Copy" stroke="url(#linearGradient-4)" stroke-width="2.5"/>
                                    <path d="M86.1896573,2.72823118 L132.159817,29.4744845 C139.015384,33.4631746 143.232869,40.7963633 143.232869,48.7278476 L143.232869,102.518603 C143.232869,110.450087 139.015384,117.783276 132.159817,121.771966 L86.1896573,148.518219 C79.2650673,152.547069 70.7103519,152.547069 63.7857619,148.518219 L17.815602,121.771966 C10.9600353,117.783276 6.74254967,110.450087 6.74254967,102.518603 L6.74254967,48.7278476 C6.74254967,40.7963633 10.9600353,33.4631746 17.815602,29.4744845 L63.7857619,2.72823118 C70.7103519,-1.30061795 79.2650673,-1.30061795 86.1896573,2.72823118 Z" id="Polygon-Copy-2" stroke="url(#linearGradient-4)" stroke-width="2.5" opacity="0.4"/>
                                    <path d="M152.943052,84.9859616 L154.770206,86.0490321 C154.998725,86.1819885 155.139308,86.4264281 155.139308,86.6908109 L155.139308,88.8268936 C155.139308,89.0912765 154.998725,89.3357161 154.770206,89.4686724 L152.943052,90.531743 C152.712233,90.666038 152.427075,90.666038 152.196256,90.531743 L150.369102,89.4686724 C150.140583,89.3357161 150,89.0912765 150,88.8268936 L150,86.6908109 C150,86.4264281 150.140583,86.1819885 150.369102,86.0490321 L152.196256,84.9859616 C152.427075,84.8516666 152.712233,84.8516666 152.943052,84.9859616 Z" id="Polygon-2-Copy-6" fill="url(#linearGradient-5)"/>
                                    <path d="M147.533284,119.200346 L149.360438,120.263416 C149.588957,120.396373 149.72954,120.640812 149.72954,120.905195 L149.72954,123.041278 C149.72954,123.305661 149.588957,123.5501 149.360438,123.683056 L147.533284,124.746127 C147.302464,124.880422 147.017307,124.880422 146.786488,124.746127 L144.959334,123.683056 C144.730815,123.5501 144.590232,123.305661 144.590232,123.041278 L144.590232,120.905195 C144.590232,120.640812 144.730815,120.396373 144.959334,120.263416 L146.786488,119.200346 C147.017307,119.066051 147.302464,119.066051 147.533284,119.200346 Z" id="Polygon-2-Copy-15" fill="url(#linearGradient-5)"/>
                                    <path d="M135.82423,98.9439114 L136.43074,99.2967899 C136.659259,99.4297462 136.799842,99.6741859 136.799842,99.9385687 L136.799842,100.654267 C136.799842,100.91865 136.659259,101.16309 136.43074,101.296046 L135.82423,101.648925 C135.59341,101.78322 135.308253,101.78322 135.077433,101.648925 L134.470923,101.296046 C134.242404,101.16309 134.101821,100.91865 134.101821,100.654267 L134.101821,99.9385687 C134.101821,99.6741859 134.242404,99.4297462 134.470923,99.2967899 L135.077433,98.9439114 C135.308253,98.8096164 135.59341,98.8096164 135.82423,98.9439114 Z" id="Polygon-2-Copy-2" fill="url(#linearGradient-5)"/>
                                    <path d="M1.72240866,73.2901832 L2.32891907,73.6430617 C2.55743796,73.776018 2.69802081,74.0204576 2.69802081,74.2848405 L2.69802081,75.0005391 C2.69802081,75.2649219 2.55743796,75.5093615 2.32891907,75.6423178 L1.72240866,75.9951963 C1.49158899,76.1294913 1.20643182,76.1294913 0.975612148,75.9951963 L0.369101743,75.6423178 C0.140582854,75.5093615 8.9300696e-14,75.2649219 8.91509089e-14,75.0005391 L8.89288643e-14,74.2848405 C8.87790772e-14,74.0204576 0.140582854,73.776018 0.369101743,73.6430617 L0.975612148,73.2901832 C1.20643182,73.1558882 1.49158899,73.1558882 1.72240866,73.2901832 Z" id="Polygon-2-Copy-7" fill="url(#linearGradient-5)"/>
                                    <path d="M40.6793623,9.15586265 L41.2858727,9.50874115 C41.5143916,9.64169749 41.6549745,9.88613711 41.6549745,10.1505199 L41.6549745,10.8662185 C41.6549745,11.1306013 41.5143916,11.375041 41.2858727,11.5079973 L40.6793623,11.8608758 C40.4485426,11.9951708 40.1633855,11.9951708 39.9325658,11.8608758 L39.3260554,11.5079973 C39.0975365,11.375041 38.9569536,11.1306013 38.9569536,10.8662185 L38.9569536,10.1505199 C38.9569536,9.88613711 39.0975365,9.64169749 39.3260554,9.50874115 L39.9325658,9.15586265 C40.1633855,9.02156768 40.4485426,9.02156768 40.6793623,9.15586265 Z" id="Polygon-2-Copy-14" fill="url(#linearGradient-5)"/>
                                    <path d="M29.4324075,6.13777698 L30.7787181,6.92108431 C31.007237,7.05404065 31.1478198,7.29848028 31.1478198,7.56286309 L31.1478198,9.13941938 C31.1478198,9.40380219 31.007237,9.64824181 30.7787181,9.78119815 L29.4324075,10.5645055 C29.2015878,10.6988005 28.9164307,10.6988005 28.685611,10.5645055 L27.3393004,9.78119815 C27.1107815,9.64824181 26.9701987,9.40380219 26.9701987,9.13941938 L26.9701987,7.56286309 C26.9701987,7.29848028 27.1107815,7.05404065 27.3393004,6.92108431 L28.685611,6.13777698 C28.9164307,6.00348201 29.2015878,6.00348201 29.4324075,6.13777698 Z" id="Polygon-2-Copy" fill="url(#linearGradient-5)"/>
                                    <path d="M84.6913129,2.72823118 L130.661473,29.4744845 C137.51704,33.4631746 141.734525,40.7963633 141.734525,48.7278476 L141.734525,102.518603 C141.734525,110.450087 137.51704,117.783276 130.661473,121.771966 L84.6913129,148.518219 C77.7667229,152.547069 69.2120075,152.547069 62.2874175,148.518219 L16.3172576,121.771966 C9.46169091,117.783276 5.2442053,110.450087 5.2442053,102.518603 L5.2442053,48.7278476 C5.2442053,40.7963633 9.46169091,33.4631746 16.3172576,29.4744845 L62.2874175,2.72823118 C69.2120075,-1.30061795 77.7667229,-1.30061795 84.6913129,2.72823118 Z" id="Polygon-Copy" stroke="url(#linearGradient-4)" stroke-width="2.5"/>
                                    <path d="M86.1896573,2.72823118 L132.159817,29.4744845 C139.015384,33.4631746 143.232869,40.7963633 143.232869,48.7278476 L143.232869,102.518603 C143.232869,110.450087 139.015384,117.783276 132.159817,121.771966 L86.1896573,148.518219 C79.2650673,152.547069 70.7103519,152.547069 63.7857619,148.518219 L17.815602,121.771966 C10.9600353,117.783276 6.74254967,110.450087 6.74254967,102.518603 L6.74254967,48.7278476 C6.74254967,40.7963633 10.9600353,33.4631746 17.815602,29.4744845 L63.7857619,2.72823118 C70.7103519,-1.30061795 79.2650673,-1.30061795 86.1896573,2.72823118 Z" id="Polygon-Copy-2" stroke="url(#linearGradient-4)" stroke-width="2.5" opacity="0.4"/>
                                    <path d="M152.943052,84.9859616 L154.770206,86.0490321 C154.998725,86.1819885 155.139308,86.4264281 155.139308,86.6908109 L155.139308,88.8268936 C155.139308,89.0912765 154.998725,89.3357161 154.770206,89.4686724 L152.943052,90.531743 C152.712233,90.666038 152.427075,90.666038 152.196256,90.531743 L150.369102,89.4686724 C150.140583,89.3357161 150,89.0912765 150,88.8268936 L150,86.6908109 C150,86.4264281 150.140583,86.1819885 150.369102,86.0490321 L152.196256,84.9859616 C152.427075,84.8516666 152.712233,84.8516666 152.943052,84.9859616 Z" id="Polygon-2-Copy-6" fill="url(#linearGradient-5)"/>
                                    <path d="M147.533284,119.200346 L149.360438,120.263416 C149.588957,120.396373 149.72954,120.640812 149.72954,120.905195 L149.72954,123.041278 C149.72954,123.305661 149.588957,123.5501 149.360438,123.683056 L147.533284,124.746127 C147.302464,124.880422 147.017307,124.880422 146.786488,124.746127 L144.959334,123.683056 C144.730815,123.5501 144.590232,123.305661 144.590232,123.041278 L144.590232,120.905195 C144.590232,120.640812 144.730815,120.396373 144.959334,120.263416 L146.786488,119.200346 C147.017307,119.066051 147.302464,119.066051 147.533284,119.200346 Z" id="Polygon-2-Copy-15" fill="url(#linearGradient-5)"/>
                                    <path d="M135.82423,98.9439114 L136.43074,99.2967899 C136.659259,99.4297462 136.799842,99.6741859 136.799842,99.9385687 L136.799842,100.654267 C136.799842,100.91865 136.659259,101.16309 136.43074,101.296046 L135.82423,101.648925 C135.59341,101.78322 135.308253,101.78322 135.077433,101.648925 L134.470923,101.296046 C134.242404,101.16309 134.101821,100.91865 134.101821,100.654267 L134.101821,99.9385687 C134.101821,99.6741859 134.242404,99.4297462 134.470923,99.2967899 L135.077433,98.9439114 C135.308253,98.8096164 135.59341,98.8096164 135.82423,98.9439114 Z" id="Polygon-2-Copy-2" fill="url(#linearGradient-5)"/>
                                    <path d="M1.72240866,73.2901832 L2.32891907,73.6430617 C2.55743796,73.776018 2.69802081,74.0204576 2.69802081,74.2848405 L2.69802081,75.0005391 C2.69802081,75.2649219 2.55743796,75.5093615 2.32891907,75.6423178 L1.72240866,75.9951963 C1.49158899,76.1294913 1.20643182,76.1294913 0.975612148,75.9951963 L0.369101743,75.6423178 C0.140582854,75.5093615 8.9300696e-14,75.2649219 8.91509089e-14,75.0005391 L8.89288643e-14,74.2848405 C8.87790772e-14,74.0204576 0.140582854,73.776018 0.369101743,73.6430617 L0.975612148,73.2901832 C1.20643182,73.1558882 1.49158899,73.1558882 1.72240866,73.2901832 Z" id="Polygon-2-Copy-7" fill="url(#linearGradient-5)"/>
                                    <path d="M40.6793623,9.15586265 L41.2858727,9.50874115 C41.5143916,9.64169749 41.6549745,9.88613711 41.6549745,10.1505199 L41.6549745,10.8662185 C41.6549745,11.1306013 41.5143916,11.375041 41.2858727,11.5079973 L40.6793623,11.8608758 C40.4485426,11.9951708 40.1633855,11.9951708 39.9325658,11.8608758 L39.3260554,11.5079973 C39.0975365,11.375041 38.9569536,11.1306013 38.9569536,10.8662185 L38.9569536,10.1505199 C38.9569536,9.88613711 39.0975365,9.64169749 39.3260554,9.50874115 L39.9325658,9.15586265 C40.1633855,9.02156768 40.4485426,9.02156768 40.6793623,9.15586265 Z" id="Polygon-2-Copy-14" fill="url(#linearGradient-5)"/>
                                    <path d="M29.4324075,6.13777698 L30.7787181,6.92108431 C31.007237,7.05404065 31.1478198,7.29848028 31.1478198,7.56286309 L31.1478198,9.13941938 C31.1478198,9.40380219 31.007237,9.64824181 30.7787181,9.78119815 L29.4324075,10.5645055 C29.2015878,10.6988005 28.9164307,10.6988005 28.685611,10.5645055 L27.3393004,9.78119815 C27.1107815,9.64824181 26.9701987,9.40380219 26.9701987,9.13941938 L26.9701987,7.56286309 C26.9701987,7.29848028 27.1107815,7.05404065 27.3393004,6.92108431 L28.685611,6.13777698 C28.9164307,6.00348201 29.2015878,6.00348201 29.4324075,6.13777698 Z" id="Polygon-2-Copy" fill="url(#linearGradient-5)"/>
                                </g>
                            </g>
                        </g>
                        <g id="Group-34" transform="translate(36.000000, 49.000000)">
                            <rect id="Rectangle" fill="url(#linearGradient-6)" x="0" y="0" width="80" height="57.2727273" rx="2"/>
                            <rect id="Rectangle" fill="url(#linearGradient-7)" x="4.1025641" y="4.24242424" width="71.7948718" height="48.7878788" rx="1.8"/>
                            <path d="M12.2564103,12.7272727 L67.7435897,12.7272727 C68.8481592,12.7272727 69.7435897,13.6227032 69.7435897,14.7272727 L69.7435897,53.030303 L10.2564103,53.030303 L10.2564103,14.7272727 C10.2564103,13.6227032 11.1518408,12.7272727 12.2564103,12.7272727 Z" id="Rectangle" fill="url(#linearGradient-8)" fill-rule="nonzero"/>
                            <path d="M31.788339,31.6965837 L23.8706516,34.506852 L31.788339,37.3171202 L31.788339,41.910828 L18.4615385,36.9117931 L18.4615385,32.1019108 L31.788339,27.1028759 L31.788339,31.6965837 Z M40.8035277,21.2121212 L46.029724,21.2121212 L37.4065001,46.6666667 L32.1803038,46.6666667 L40.8035277,21.2121212 Z M59.4871795,32.1019108 L59.4871795,36.9117931 L46.1603789,41.910828 L46.1603789,37.3171202 L54.0780663,34.506852 L46.1603789,31.6965837 L46.1603789,27.1028759 L59.4871795,32.1019108 Z" id="&lt;/&gt;" fill="#FFFFFF"/>
                            <rect id="Rectangle" fill="url(#linearGradient-9)" x="30.7692308" y="57.2727273" width="18.4615385" height="8.48484848"/>
                            <rect id="Rectangle" fill="url(#linearGradient-10)" transform="translate(40.000000, 67.878788) scale(1, -1) translate(-40.000000, -67.878788) " x="24.6153846" y="65.7575758" width="30.7692308" height="4.24242424"/>
                        </g>
                    </g>
                </g>
            </g>
        </g>
    </g>
</svg>