<svg xmlns="http://www.w3.org/2000/svg" xmlns:xlink="http://www.w3.org/1999/xlink" width="141px" height="154px" viewBox="0 0 141 154" version="1.1">
    <!-- Generator: Sketch 52.5 (67469) - http://www.bohemiancoding.com/sketch -->
    <title>Solid &amp; Secure</title>
    <desc>Created with Sketch.</desc>
    <defs>
        <linearGradient x1="22.5181731%" y1="12.8216691%" x2="100%" y2="60.6354535%" id="linearGradient-1">
            <stop stop-color="#112E61" stop-opacity="0" offset="0%"/>
            <stop stop-color="#112E61" offset="100%"/>
        </linearGradient>
        <path d="M95.3694621,18.7755579 L135.577492,42.0534909 C142.45647,46.0359892 146.692052,53.3823193 146.692052,61.3309445 L146.692052,107.992836 C146.692052,115.941461 142.45647,123.287791 135.577492,127.27029 L95.3694621,150.548223 C88.4659034,154.544951 79.9521421,154.544951 73.0485834,150.548223 L32.840554,127.27029 C25.9615751,123.287791 21.7259934,115.941461 21.7259934,107.992836 L21.7259934,61.3309445 C21.7259934,53.3823193 25.9615751,46.0359892 32.840554,42.0534909 L73.0485834,18.7755579 C79.9521421,14.7788293 88.4659034,14.7788293 95.3694621,18.7755579 Z" id="path-2"/>
        <filter x="-12.0%" y="-10.9%" width="124.0%" height="121.8%" filterUnits="objectBoundingBox" id="filter-3">
            <feGaussianBlur stdDeviation="10" in="SourceAlpha" result="shadowBlurInner1"/>
            <feOffset dx="-10" dy="0" in="shadowBlurInner1" result="shadowOffsetInner1"/>
            <feComposite in="shadowOffsetInner1" in2="SourceAlpha" operator="arithmetic" k2="-1" k3="1" result="shadowInnerInner1"/>
            <feColorMatrix values="0 0 0 0 0   0 0 0 0 0.0274509804   0 0 0 0 0.133333333  0 0 0 0.24 0" type="matrix" in="shadowInnerInner1"/>
        </filter>
        <linearGradient x1="100%" y1="79.2196502%" x2="4.74372584%" y2="20.6260934%" id="linearGradient-4">
            <stop stop-color="#F5A440" offset="0%"/>
            <stop stop-color="#2B3362" stop-opacity="0" offset="100%"/>
        </linearGradient>
        <linearGradient x1="99.4504059%" y1="95.6159087%" x2="-9.64155221%" y2="14.6498723%" id="linearGradient-5">
            <stop stop-color="#F4A440" offset="0%"/>
            <stop stop-color="#FAD165" offset="100%"/>
        </linearGradient>
        <linearGradient x1="50%" y1="0%" x2="50%" y2="97.0443461%" id="linearGradient-6">
            <stop stop-color="#2D5BC8" offset="0%"/>
            <stop stop-color="#0952BA" offset="100%"/>
        </linearGradient>
        <linearGradient x1="50%" y1="0%" x2="50%" y2="100%" id="linearGradient-7">
            <stop stop-color="#4ABFE8" offset="0%"/>
            <stop stop-color="#025CDD" offset="100%"/>
        </linearGradient>
        <linearGradient x1="149.135888%" y1="27.6910049%" x2="50%" y2="71.0363516%" id="linearGradient-8">
            <stop stop-color="#4ABFE8" offset="0%"/>
            <stop stop-color="#003580" offset="100%"/>
        </linearGradient>
        <linearGradient x1="100%" y1="67.5370487%" x2="-16.5466084%" y2="29.143859%" id="linearGradient-9">
            <stop stop-color="#4ABFE8" offset="0%"/>
            <stop stop-color="#025CDD" offset="100%"/>
        </linearGradient>
        <linearGradient x1="47.4361649%" y1="50%" x2="50%" y2="-15.0275094%" id="linearGradient-10">
            <stop stop-color="#F5A440" offset="0%"/>
            <stop stop-color="#2B3362" stop-opacity="0" offset="100%"/>
        </linearGradient>
        <linearGradient x1="50%" y1="0%" x2="50%" y2="100%" id="linearGradient-11">
            <stop stop-color="#FAD961" offset="0%"/>
            <stop stop-color="#F71C1C" offset="100%"/>
        </linearGradient>
        <path d="M2.09216051,28.6987632 L20.1597455,38.4487135 C21.4892031,39.166139 23.1100555,39.0699834 24.3453655,38.2004055 L26.3091319,36.8180417 C27.3692453,36.0717909 28,34.8564203 28,33.5599903 L28,13.1220361 C28,11.6160321 27.1508605,10.2387212 25.8053296,9.56226375 L7.7828816,0.501587707 C6.65516874,-0.0653630742 5.32551482,-0.0644331045 4.19859611,0.504094583 L2.18969272,1.51758135 C0.846901143,2.19501637 1.40266682e-14,3.57084968 1.42108547e-14,5.07484684 L1.82076576e-14,25.1924037 C1.83870023e-14,26.6568643 0.803378633,28.0032878 2.09216051,28.6987632 Z" id="path-12"/>
        <linearGradient x1="58.2269487%" y1="35.2795038%" x2="100%" y2="97.9934721%" id="linearGradient-14">
            <stop stop-color="#F73927" offset="0%"/>
            <stop stop-color="#F71C1C" stop-opacity="0" offset="100%"/>
        </linearGradient>
        <linearGradient x1="58.2269487%" y1="35.2795038%" x2="100%" y2="97.9934721%" id="linearGradient-15">
            <stop stop-color="#FAC65A" offset="0%"/>
            <stop stop-color="#F71C1C" stop-opacity="0" offset="100%"/>
        </linearGradient>
        <linearGradient x1="50%" y1="0%" x2="126.093406%" y2="189.651768%" id="linearGradient-16">
            <stop stop-color="#FAD961" offset="0%"/>
            <stop stop-color="#F71C1C" offset="100%"/>
        </linearGradient>
        <path d="M13.6952016,22.4371269 C13.6952016,23.3214303 12.9557168,24.0382999 12.0435162,24.0382999 C11.1313155,24.0382999 10.3918308,23.3214303 10.3918308,22.4371269 L10.3918308,11.3217276 C10.3918308,7.05484832 9.31884092,5.02456753 6.18280601,3.5014354 C5.17976078,3.01426914 4.6912872,3.1493687 4.19346453,3.82531559 C3.69147055,4.5069263 3.35363609,5.66589491 3.35363609,6.40469208 L3.35363609,16.188727 C3.35363609,17.0730304 2.61415136,17.7899 1.7019507,17.7899 C0.789750047,17.7899 0.0502653084,17.0730304 0.0502653084,16.188727 L0.0502653084,6.40469208 C0.0502653084,5.03275266 0.577563303,3.22381394 1.50498528,1.96455431 C2.92102864,0.0418413597 5.15961252,-0.577294901 7.66250249,0.638326813 C12.0183448,2.75390386 13.6952016,5.92680427 13.6952016,11.3217276 L13.6952016,22.4371269 Z" id="path-17"/>
        <linearGradient x1="58.2269487%" y1="35.2795038%" x2="58.2269487%" y2="101.798516%" id="linearGradient-19">
            <stop stop-color="#E53B2B" offset="0%"/>
            <stop stop-color="#F71C1C" stop-opacity="0" offset="100%"/>
        </linearGradient>
    </defs>
    <g id="Page-1" stroke="none" stroke-width="1" fill="none" fill-rule="evenodd">
        <g id="Development" transform="translate(-1042.000000, -387.000000)">
            <g id="Solid-&amp;-Secure" transform="translate(1027.000000, 379.000000)">
                <g id="Group-51" transform="translate(0.582781, 0.000000)">
                    <rect id="Rectangle-Copy-7" fill-rule="nonzero" x="0" y="0" width="169.312914" height="169.677673"/>
                    <g id="Polygon-Copy-5">
                        <use fill="url(#linearGradient-1)" fill-rule="evenodd" xlink:href="#path-2"/>
                        <use fill="black" fill-opacity="1" filter="url(#filter-3)" xlink:href="#path-2"/>
                    </g>
                    <path d="M95.1382152,12.4509145 L141.108375,39.0647606 C147.987354,43.0472589 152.222936,50.393589 152.222936,58.3422142 L152.222936,111.675932 C152.222936,119.624557 147.987354,126.970887 141.108375,130.953385 L95.1382152,157.567232 C88.2346565,161.56396 79.7208951,161.56396 72.8173364,157.567232 L26.8471765,130.953385 C19.9681977,126.970887 15.7326159,119.624557 15.7326159,111.675932 L15.7326159,58.3422142 C15.7326159,50.393589 19.9681977,43.0472589 26.8471765,39.0647606 L72.8173364,12.4509145 C79.7208951,8.45418597 88.2346565,8.45418597 95.1382152,12.4509145 Z" id="Polygon-Copy-4" stroke="url(#linearGradient-4)" stroke-width="2.5"/>
                    <path d="M96.6365596,12.4509145 L142.606719,39.0647606 C149.485698,43.0472589 153.72128,50.393589 153.72128,58.3422142 L153.72128,111.675932 C153.72128,119.624557 149.485698,126.970887 142.606719,130.953385 L96.6365596,157.567232 C89.7330008,161.56396 81.2192395,161.56396 74.3156808,157.567232 L28.3455209,130.953385 C21.466542,126.970887 17.2309603,119.624557 17.2309603,111.675932 L17.2309603,58.3422142 C17.2309603,50.393589 21.466542,43.0472589 28.3455209,39.0647606 L74.3156808,12.4509145 C81.2192395,8.45418597 89.7330008,8.45418597 96.6365596,12.4509145 Z" id="Polygon-Copy-3" stroke="url(#linearGradient-4)" stroke-width="2.5" opacity="0.4"/>
                    <path d="M130.30094,16.5025256 L132.128094,17.5603335 C132.357393,17.6930834 132.49858,17.9379611 132.49858,18.2029152 L132.49858,20.3220651 C132.49858,20.5870193 132.357393,20.831897 132.128094,20.9646469 L130.30094,22.0224547 C130.070822,22.155679 129.78703,22.155679 129.556911,22.0224547 L127.729757,20.9646469 C127.500458,20.831897 127.359272,20.5870193 127.359272,20.3220651 L127.359272,18.2029152 C127.359272,17.9379611 127.500458,17.6930834 127.729757,17.5603335 L129.556911,16.5025256 C129.78703,16.3693013 130.070822,16.3693013 130.30094,16.5025256 Z" id="Polygon-2-Copy-5" fill="url(#linearGradient-5)"/>
                    <ellipse id="Oval-Copy-4" fill="url(#linearGradient-5)" cx="21.7112394" cy="25.5128261" rx="1.48359043" ry="1.48766888"/>
                    <ellipse id="Oval-Copy-5" fill="url(#linearGradient-5)" cx="53.1764712" cy="158.401977" rx="1.48359043" ry="1.48766888"/>
                    <ellipse id="Oval-Copy-2" fill="url(#linearGradient-5)" cx="140.829617" cy="70.5599959" rx="1.48359043" ry="1.48766888"/>
                    <ellipse id="Oval" fill="url(#linearGradient-5)" cx="29.2029613" cy="155.398832" rx="1.48359043" ry="1.48766888"/>
                    <ellipse id="Oval-Copy-3" stroke="url(#linearGradient-5)" stroke-width="2.5" cx="38.9348227" cy="139.625371" rx="2.22538565" ry="2.23150332"/>
                    <path d="M95.1382152,12.4509145 L141.108375,39.0647606 C147.987354,43.0472589 152.222936,50.393589 152.222936,58.3422142 L152.222936,111.675932 C152.222936,119.624557 147.987354,126.970887 141.108375,130.953385 L95.1382152,157.567232 C88.2346565,161.56396 79.7208951,161.56396 72.8173364,157.567232 L26.8471765,130.953385 C19.9681977,126.970887 15.7326159,119.624557 15.7326159,111.675932 L15.7326159,58.3422142 C15.7326159,50.393589 19.9681977,43.0472589 26.8471765,39.0647606 L72.8173364,12.4509145 C79.7208951,8.45418597 88.2346565,8.45418597 95.1382152,12.4509145 Z" id="Polygon-Copy-4" stroke="url(#linearGradient-4)" stroke-width="2.5"/>
                    <path d="M96.6365596,12.4509145 L142.606719,39.0647606 C149.485698,43.0472589 153.72128,50.393589 153.72128,58.3422142 L153.72128,111.675932 C153.72128,119.624557 149.485698,126.970887 142.606719,130.953385 L96.6365596,157.567232 C89.7330008,161.56396 81.2192395,161.56396 74.3156808,157.567232 L28.3455209,130.953385 C21.466542,126.970887 17.2309603,119.624557 17.2309603,111.675932 L17.2309603,58.3422142 C17.2309603,50.393589 21.466542,43.0472589 28.3455209,39.0647606 L74.3156808,12.4509145 C81.2192395,8.45418597 89.7330008,8.45418597 96.6365596,12.4509145 Z" id="Polygon-Copy-3" stroke="url(#linearGradient-4)" stroke-width="2.5" opacity="0.4"/>
                    <path d="M130.30094,16.5025256 L132.128094,17.5603335 C132.357393,17.6930834 132.49858,17.9379611 132.49858,18.2029152 L132.49858,20.3220651 C132.49858,20.5870193 132.357393,20.831897 132.128094,20.9646469 L130.30094,22.0224547 C130.070822,22.155679 129.78703,22.155679 129.556911,22.0224547 L127.729757,20.9646469 C127.500458,20.831897 127.359272,20.5870193 127.359272,20.3220651 L127.359272,18.2029152 C127.359272,17.9379611 127.500458,17.6930834 127.729757,17.5603335 L129.556911,16.5025256 C129.78703,16.3693013 130.070822,16.3693013 130.30094,16.5025256 Z" id="Polygon-2-Copy-5" fill="url(#linearGradient-5)"/>
                    <ellipse id="Oval-Copy-4" fill="url(#linearGradient-5)" cx="21.7112394" cy="25.5128261" rx="1.48359043" ry="1.48766888"/>
                    <ellipse id="Oval-Copy-5" fill="url(#linearGradient-5)" cx="53.1764712" cy="158.401977" rx="1.48359043" ry="1.48766888"/>
                    <ellipse id="Oval-Copy-2" fill="url(#linearGradient-5)" cx="140.829617" cy="70.5599959" rx="1.48359043" ry="1.48766888"/>
                    <ellipse id="Oval" fill="url(#linearGradient-5)" cx="29.2029613" cy="155.398832" rx="1.48359043" ry="1.48766888"/>
                    <ellipse id="Oval-Copy-3" stroke="url(#linearGradient-5)" stroke-width="2.5" cx="38.9348227" cy="139.625371" rx="2.22538565" ry="2.23150332"/>
                </g>
                <g id="Group-7" transform="translate(38.000000, 45.000000)">
                    <path d="M32.0752434,8.8817842e-15 C38.6544514,3.6527889 45.297732,4.58562328 52.0050853,2.79850313 C58.5623681,12.5590798 67.9853749,20.4585074 80.2741058,26.4967859 C82.4457708,38.2456524 81.2981403,55.6592107 73.3250607,65.9942023 C68.0096743,72.8841967 61.0719838,77.4303378 52.5119893,79.6326257 C31.1281351,51.6769578 21.8662713,26.9174104 24.7263981,5.3539835 C28.0215686,2.79850313 29.7502256,1.69028277 32.0752434,8.8817842e-15 Z" id="Path" fill="url(#linearGradient-6)"/>
                    <path d="M24.5752434,5.15151515 C31.1544514,8.80430405 37.797732,9.73713843 44.5050853,7.95001829 C51.0623681,17.710595 60.4853749,25.6100226 72.7741058,31.648301 C74.9457708,43.3971676 73.7981403,60.8107259 65.8250607,71.1457174 C60.5096743,78.0357118 53.5719838,82.581853 45.0119893,84.7841408 C25.4472989,66.8681508 18.6350503,40.3239422 24.5752434,5.15151515 Z" id="Path-Copy-2" fill="url(#linearGradient-7)"/>
                    <path d="M29.1199902,12.8787879 C34.2558947,15.8325705 39.441816,16.5868955 44.6777541,15.1417629 C49.7965432,23.0345327 57.1523926,29.4223073 66.7453024,34.3050866 C68.4405618,43.8056624 67.5446909,57.8869213 61.3206932,66.2441846 C57.1713614,71.8156935 51.7556159,75.4918744 45.0734568,77.2727273 C29.8007398,62.7851832 24.4829176,41.3205367 29.1199902,12.8787879 Z" id="Path-Copy-2" fill="url(#linearGradient-8)"/>
                    <path d="M31.0817026,13.8989226 C35.5756147,15.9888485 40.1076319,16.4031286 44.6777541,15.1417629 C49.7965432,23.0345327 57.1523926,29.4223073 66.7453024,34.3050866 C68.4405618,43.8056624 67.5446909,57.8869213 61.3206932,66.2441846 C60.8510157,66.8748434 60.3651119,67.4812178 59.8629818,68.0633077 C56.4014084,71.2247787 52.3049001,73.4359994 47.5734568,74.6969697 C32.9511788,60.8264254 27.4539274,40.5604097 31.0817026,13.8989226 Z" id="Path" fill="url(#linearGradient-9)"/>
                    <path d="M14.4841543,29.9163888 C8.21237594,33.6071264 4.47772273,38.3541791 4.52714441,43.5644723 C4.64144423,55.6145594 24.9527062,65.5793027 49.8936177,65.8213494 C74.8345292,66.0633961 94.9604745,56.491088 94.8461747,44.4410009 C94.7790067,37.3597931 87.7372218,30.9987172 76.8799328,26.9076395" id="Path" stroke="url(#linearGradient-10)" stroke-width="2.5" opacity="0.4" transform="translate(49.686660, 46.366740) rotate(20.000000) translate(-49.686660, -46.366740) "/>
                    <g id="Group-131" transform="translate(16.000000, 23.000000)">
                        <g id="Path-200" transform="translate(0.000000, 12.961877)">
                            <mask id="mask-13" fill="white">
                                <use xlink:href="#path-12"/>
                            </mask>
                            <use id="Mask" fill="url(#linearGradient-11)" xlink:href="#path-12"/>
                            <path d="M35.644693,7.55742611 L23.9903003,13.1370723 C22.8197274,13.6974947 22.0747698,14.8800826 22.0747698,16.1778938 L22.0747698,41.0422717 L39.9157303,29.888563 L35.644693,7.55742611 Z" id="Path-199" fill="url(#linearGradient-14)" opacity="0.15625" mask="url(#mask-13)"/>
                            <path d="M-3.24292533,30.9508259 L16.5550806,42.405533 C18.3132272,43.4227594 20.5631116,42.8221249 21.5803381,41.0639782 C21.9042257,40.5041795 22.0747698,39.8688708 22.0747698,39.2221268 L22.0747698,16.3113926 C22.0747698,14.9265724 21.2968947,13.6591418 20.0621522,13.0321347 L0.264146321,2.97862836 C-1.54693783,2.0589526 -3.76065613,2.78158189 -4.68033188,4.59266604 C-4.94235123,5.10865125 -5.07891177,5.67918527 -5.07891177,6.2578863 L-5.07891177,27.7674198 C-5.07891177,29.0801747 -4.37919947,30.2934018 -3.24292533,30.9508259 Z" fill="url(#linearGradient-15)" mask="url(#mask-13)"/>
                        </g>
                        <g id="Path-202" transform="translate(7.078652, 0.000000)">
                            <mask id="mask-18" fill="white">
                                <use xlink:href="#path-17"/>
                            </mask>
                            <use id="Mask" fill="url(#linearGradient-16)" xlink:href="#path-17"/>
                            <path d="M5.35976609,3.20234604 C3.1604059,3.46684179 1.95772428,4.07681246 1.75172123,5.03225806 C1.54571817,5.98770367 1.44461724,10.6605992 1.44841842,19.0509446 L6.25469964,17.9952793 L5.35976609,3.20234604 Z" fill="url(#linearGradient-19)" opacity="0.417015439" mask="url(#mask-18)"/>
                        </g>
                        <path d="M9.67256359,33.9066779 C8.75037469,32.9873904 8.0650456,31.5618889 8.02431323,30.3194431 C7.97197138,28.7228774 9.04196378,28.0629031 10.4142082,28.8453493 C11.7864525,29.6277955 12.8988764,31.5232637 12.8988764,33.0789961 C12.8988764,34.2656973 12.2736039,34.9290971 11.3930055,34.8493472 L11.4252736,37.9230605 C11.4311944,38.4870439 11.0617343,38.7362398 10.6000614,38.4796553 C10.1383884,38.2230707 9.75384349,37.5535896 9.74115616,36.9843274 L9.67256359,33.9066779 Z" id="Combined-Shape" fill="#892316"/>
                    </g>
                </g>
            </g>
        </g>
    </g>
</svg>