<svg xmlns="http://www.w3.org/2000/svg" xmlns:xlink="http://www.w3.org/1999/xlink" width="98px" height="103px" viewBox="0 0 98 103" version="1.1">
    <!-- Generator: Sketch 52.5 (67469) - http://www.bohemiancoding.com/sketch -->
    <title>icon7</title>
    <desc>Created with Sketch.</desc>
    <defs>
        <linearGradient x1="22.5181731%" y1="12.8216691%" x2="100%" y2="60.6354535%" id="linearGradient-1">
            <stop stop-color="#112E61" stop-opacity="0" offset="0%"/>
            <stop stop-color="#112E61" offset="100%"/>
        </linearGradient>
        <path d="M58.5312165,5.95521927 L85.3825974,21.4670707 C89.9753415,24.1202663 92.8042936,29.0216089 92.8042936,34.3256399 L92.8042936,65.3646048 C92.8042936,70.6686358 89.9753415,75.5699785 85.3825974,78.223174 L58.5312165,93.7350255 C53.9349316,96.3902665 48.2708937,96.3902665 43.6746088,93.7350255 L16.8232279,78.223174 C12.2304838,75.5699785 9.40153173,70.6686358 9.40153173,65.3646048 L9.40153173,34.3256399 C9.40153173,29.0216089 12.2304838,24.1202663 16.8232279,21.4670707 L43.6746088,5.95521927 C48.2708937,3.29997822 53.9349316,3.29997822 58.5312165,5.95521927 Z" id="path-2"/>
        <filter x="-12.0%" y="-10.9%" width="124.0%" height="121.8%" filterUnits="objectBoundingBox" id="filter-3">
            <feGaussianBlur stdDeviation="6" in="SourceAlpha" result="shadowBlurInner1"/>
            <feOffset dx="-8" dy="0" in="shadowBlurInner1" result="shadowOffsetInner1"/>
            <feComposite in="shadowOffsetInner1" in2="SourceAlpha" operator="arithmetic" k2="-1" k3="1" result="shadowInnerInner1"/>
            <feColorMatrix values="0 0 0 0 0   0 0 0 0 0.0274509804   0 0 0 0 0.133333333  0 0 0 0.24 0" type="matrix" in="shadowInnerInner1"/>
        </filter>
        <linearGradient x1="100%" y1="79.2196502%" x2="4.74372584%" y2="20.6260934%" id="linearGradient-4">
            <stop stop-color="#F5A440" offset="0%"/>
            <stop stop-color="#2B3362" stop-opacity="0" offset="100%"/>
        </linearGradient>
        <polygon id="path-5" points="6.62552703 0.0250329532 0.736966317 23.6978115 0.0257808544 23.6978115"/>
        <polygon id="path-7" points="0.0549177963 23.8147337 5.94363106 0.142107802 6.85099509 0.142107802"/>
        <path d="M25.5053501,7.42303384 L24.2149344,10.8134726 L23.2801115,11.9240809 L24.5892908,6.65525484 C25.3566144,3.57833855 23.0305406,0.599875038 19.8599532,0.599875038 L0.0398154023,0.599875038 L20.2873967,0.0631929429" id="path-9"/>
        <path d="M0.397086177,4.51142662 L1.68750184,1.12098786 L2.62217223,0.0103795172 L1.31314553,5.27935825 C0.545821876,8.3561219 2.87189565,11.3345854 6.04248309,11.3345854 L25.8627734,11.3345854 L5.61488703,11.8714202" id="path-11"/>
        <linearGradient x1="99.4504059%" y1="95.6159087%" x2="-9.64155221%" y2="14.6498723%" id="linearGradient-13">
            <stop stop-color="#F4A440" offset="0%"/>
            <stop stop-color="#FAD165" offset="100%"/>
        </linearGradient>
        <linearGradient x1="88.4536821%" y1="104.273072%" x2="-15.9934282%" y2="32.1089714%" id="linearGradient-14">
            <stop stop-color="#F4A440" offset="0%"/>
            <stop stop-color="#FAD165" offset="100%"/>
        </linearGradient>
        <linearGradient x1="100%" y1="50%" x2="34.7097551%" y2="100%" id="linearGradient-15">
            <stop stop-color="#F4A440" offset="0%"/>
            <stop stop-color="#FAD165" offset="100%"/>
        </linearGradient>
        <linearGradient x1="15.0662591%" y1="107.453026%" x2="97.0564003%" y2="78.0304573%" id="linearGradient-16">
            <stop stop-color="#F4A440" offset="0%"/>
            <stop stop-color="#FAD165" offset="100%"/>
        </linearGradient>
        <linearGradient x1="15.0662591%" y1="107.453026%" x2="350.582682%" y2="73.8720873%" id="linearGradient-17">
            <stop stop-color="#DA8318" offset="0%"/>
            <stop stop-color="#FAD165" offset="100%"/>
        </linearGradient>
    </defs>
    <g id="Page-1" stroke="none" stroke-width="1" fill="none" fill-rule="evenodd">
        <g id="Z-DAG" transform="translate(-693.000000, -2118.000000)">
            <g id="icon7" transform="translate(692.000000, 2119.000000)">
                <g id="Group" transform="translate(0.000000, 0.500000)">
                    <g id="Polygon-Copy-5">
                        <use fill="url(#linearGradient-1)" fill-rule="evenodd" xlink:href="#path-2"/>
                        <use fill="black" fill-opacity="1" filter="url(#filter-3)" xlink:href="#path-2"/>
                    </g>
                    <path d="M58.4162688,1.78024251 L89.1133148,19.5137072 C93.7060588,22.1669028 96.5350109,27.0682455 96.5350109,32.3722765 L96.5350109,67.8544679 C96.5350109,73.1584989 93.7060588,78.0598416 89.1133148,80.7130371 L58.4162688,98.4465019 C53.8199839,101.101743 48.1559461,101.101743 43.5596612,98.4465019 L12.8626152,80.7130371 C8.26987113,78.0598416 5.44091904,73.1584989 5.44091904,67.8544679 L5.44091904,32.3722765 C5.44091904,27.0682455 8.26987113,22.1669028 12.8626152,19.5137072 L43.5596612,1.78024251 C48.1559461,-0.874998536 53.8199839,-0.874998536 58.4162688,1.78024251 Z" id="Polygon-Copy-4" stroke="url(#linearGradient-4)" stroke-width="1.485"/>
                    <path d="M59.406422,1.78024251 L90.1034679,19.5137072 C94.696212,22.1669028 97.5251641,27.0682455 97.5251641,32.3722765 L97.5251641,67.8544679 C97.5251641,73.1584989 94.696212,78.0598416 90.1034679,80.7130371 L59.406422,98.4465019 C54.8101371,101.101743 49.1460992,101.101743 44.5498143,98.4465019 L13.8527684,80.7130371 C9.2600243,78.0598416 6.43107221,73.1584989 6.43107221,67.8544679 L6.43107221,32.3722765 C6.43107221,27.0682455 9.2600243,22.1669028 13.8527684,19.5137072 L44.5498143,1.78024251 C49.1460992,-0.874998536 54.8101371,-0.874998536 59.406422,1.78024251 Z" id="Polygon-Copy-3" stroke="url(#linearGradient-4)" stroke-width="1.485" opacity="0.4"/>
                    <g id="Group-8" transform="translate(47.187360, 28.079129) rotate(-11.000000) translate(-47.187360, -28.079129) translate(3.187360, 9.079129)"/>
                </g>
                <g id="Page-1" transform="translate(29.500000, 19.500000)">
                    <g id="Group-19" transform="translate(0.000000, 0.127607)">
                        <g id="Group-9" transform="translate(23.492613, 0.000000)">
                            <mask id="mask-6" fill="white">
                                <use xlink:href="#path-5"/>
                            </mask>
                            <g id="Clip-8"/>
                        </g>
                        <g id="Group-12" transform="translate(12.814152, 35.565110)">
                            <mask id="mask-8" fill="white">
                                <use xlink:href="#path-7"/>
                            </mask>
                            <g id="Clip-11"/>
                        </g>
                        <g id="Group-15" transform="translate(0.000000, 35.107191)">
                            <mask id="mask-10" fill="white">
                                <use xlink:href="#path-9"/>
                            </mask>
                            <g id="Clip-14"/>
                        </g>
                        <g id="Group-18" transform="translate(17.085537, 12.363837)">
                            <mask id="mask-12" fill="white">
                                <use xlink:href="#path-11"/>
                            </mask>
                            <g id="Clip-17"/>
                        </g>
                    </g>
                </g>
                <path d="M83.9626057,-0.0102255195 L85.1826013,0.694557248 C85.3356928,0.782997099 85.4299912,0.946375189 85.4299912,1.12317622 L85.4299912,2.53325049 C85.4299912,2.71005152 85.3356928,2.87342961 85.1826013,2.96186946 L83.9626057,3.66665223 C83.8093962,3.75516027 83.620595,3.75516027 83.4673855,3.66665223 L82.2473899,2.96186946 C82.0942984,2.87342961 82,2.71005152 82,2.53325049 L82,1.12317622 C82,0.946375189 82.0942984,0.782997099 82.2473899,0.694557248 L83.4673855,-0.0102255195 C83.620595,-0.0987335543 83.8093962,-0.0987335543 83.9626057,-0.0102255195 Z" id="Polygon-2-Copy-5" fill="url(#linearGradient-13)"/>
                <ellipse id="Oval-Copy-4" fill="url(#linearGradient-13)" cx="77.9901532" cy="27.4907407" rx="1" ry="1"/>
                <ellipse id="Oval-Copy-5" fill="url(#linearGradient-13)" cx="2.49015317" cy="26.9907407" rx="1" ry="1"/>
                <ellipse id="Oval-Copy-2" fill="url(#linearGradient-13)" cx="90.9901532" cy="35.9907407" rx="1" ry="1"/>
                <ellipse id="Oval" fill="url(#linearGradient-13)" cx="22.9901532" cy="24.4907407" rx="1" ry="1"/>
                <ellipse id="Oval-Copy-3" stroke="url(#linearGradient-13)" stroke-width="0.99" cx="18.9852298" cy="6.48611111" rx="1.48522976" ry="1.48611111"/>
                <g id="Group-94" transform="translate(33.500000, 27.500000)" fill-rule="nonzero">
                    <g id="Group-16-Copy-3" transform="translate(25.776779, 26.594997) rotate(2.000000) translate(-25.776779, -26.594997) translate(15.405634, 18.114997)">
                        <path d="M0.169108126,10.5003097 C0.169108126,13.8271216 4.61236015,16.4433398 10.079709,16.4433398 C15.5462329,16.4433398 19.9663881,13.8271216 19.9663881,10.5003097 L19.978349,5.88413524 L0.181068983,5.88413524 L0.169108126,10.5003097 Z" id="Shape" fill="url(#linearGradient-14)"/>
                        <path d="M0.181068983,5.80671241 C0.181068983,9.0138758 4.62432101,11.7682705 10.0916698,11.7682705 C15.5581938,11.7682705 19.978349,9.0138758 19.978349,5.80671241 C19.978349,2.59954901 15.5462329,-3.41060513e-13 10.079709,-3.41060513e-13 C4.61277259,-3.41060513e-13 0.181068983,2.59954901 0.181068983,5.80671241 Z" id="Shape" fill="url(#linearGradient-15)"/>
                        <path d="M1.83084231,5.8033092 C1.83084231,8.08001692 5.53617602,10.087089 10.0916245,10.087089 C14.6470731,10.087089 18.3285756,8.08001692 18.3285756,5.8033092 C18.3285756,3.52660149 14.6355684,1.6811815 10.0792981,1.6811815 C5.52384956,1.6811815 1.83084231,3.52660149 1.83084231,5.8033092 Z" id="Shape" fill="url(#linearGradient-16)"/>
                        <path d="M3.29703409,5.78298704 C3.29703409,3.68591244 6.65627085,1.97318712 10.9152959,1.82032093 C10.7114696,1.81283361 10.5076434,1.80534628 10.3001261,1.80534628 C5.7527916,1.80534628 2.06669465,3.58608145 2.06669465,5.78298704 C2.06669465,7.97989263 5.76509499,9.91661371 10.3120194,9.91661371 C10.5195367,9.91661371 10.7233629,9.9078785 10.9271891,9.90039118 C6.66734391,9.73504611 3.29703409,7.8794377 3.29703409,5.78298704 Z" id="Shape" fill="url(#linearGradient-17)" opacity="0.605751812"/>
                        <path d="M3.75061923,10.9351997 C4.01555232,11.0718433 4.28909778,11.2009997 4.57084551,11.318925 L4.57084551,15.0650827 C4.28089552,14.9359264 4.00365904,14.8005306 3.75061923,14.6570235 L3.75061923,10.9351997 Z" id="Shape" fill="#DA8418" opacity="0.605751812"/>
                        <path d="M6.21129809,11.8873377 C6.48115254,11.9628349 6.75428789,12.0320926 7.03152438,12.0919912 L7.03152438,15.8512517 C6.74895642,15.7913531 6.47500084,15.7245911 6.21129809,15.6515897 L6.21129809,11.8873377 Z" id="Shape" fill="#DA8418" opacity="0.605751812"/>
                        <path d="M9.49220325,16.1644714 C9.21168586,16.1513686 8.93937073,16.1289066 8.67197696,16.102077 L8.67197696,12.3527997 C8.94429209,12.382749 9.21824767,12.4052109 9.49220325,12.4195616 L9.49220325,16.1644714 Z" id="Shape" fill="#DA8418" opacity="0.605751812"/>
                        <path d="M13.5933347,12.0907433 C13.8705712,12.0295968 14.1428863,11.9603391 14.413561,11.8848419 L14.413561,15.6553334 C14.149038,15.7283348 13.8759026,15.7944728 13.5933347,15.8537475 L13.5933347,12.0907433 Z" id="Shape" fill="#DA8418" opacity="0.605751812"/>
                        <path d="M18.5142823,13.389794 L18.5142823,9.87511943 C18.8099739,9.63864479 19.0847497,9.38657155 19.3345086,9.11952367 L19.3345086,11.6652138 C19.3345086,12.204925 19.0453788,12.8057827 18.5142823,13.389794 Z" id="Shape" fill="#DA8418" opacity="0.605751812"/>
                        <path d="M16.8742398,14.6607672 C16.6203798,14.8042743 16.3431433,14.93967 16.0540136,15.0700742 L16.0540136,11.3133095 C16.3353512,11.1935124 16.6084865,11.064356 16.8742398,10.9264645 L16.8742398,14.6607672 Z" id="Shape" fill="#DA8418" opacity="0.605751812"/>
                        <path d="M2.11016665,13.3872982 C1.57907013,12.8045349 1.28994036,12.204925 1.28994036,11.6652138 L1.28994036,9.14260959 C1.53969926,9.40591381 1.81447507,9.65549126 2.11016665,9.89071802 L2.11016665,13.3872982 Z" id="Shape" fill="#DA8418" opacity="0.605751812"/>
                        <path d="M11.1326558,12.4208095 C11.4066114,12.4064588 11.6797468,12.382749 11.9528821,12.3540475 L11.9528821,16.1051968 C11.6846681,16.1307784 11.4131732,16.1526165 11.1326558,16.1657193 L11.1326558,12.4208095 Z" id="Shape" fill="#DA8418" opacity="0.605751812"/>
                    </g>
                    <g id="Group-16-Copy-3" transform="translate(10.662242, 26.594997) rotate(2.000000) translate(-10.662242, -26.594997) translate(0.291097, 18.114997)">
                        <path d="M0.169108126,10.5003097 C0.169108126,13.8271216 4.61236015,16.4433398 10.079709,16.4433398 C15.5462329,16.4433398 19.9663881,13.8271216 19.9663881,10.5003097 L19.978349,5.88413524 L0.181068983,5.88413524 L0.169108126,10.5003097 Z" id="Shape" fill="url(#linearGradient-14)"/>
                        <path d="M0.181068983,5.80671241 C0.181068983,9.0138758 4.62432101,11.7682705 10.0916698,11.7682705 C15.5581938,11.7682705 19.978349,9.0138758 19.978349,5.80671241 C19.978349,2.59954901 15.5462329,-3.41060513e-13 10.079709,-3.41060513e-13 C4.61277259,-3.41060513e-13 0.181068983,2.59954901 0.181068983,5.80671241 Z" id="Shape" fill="url(#linearGradient-15)"/>
                        <path d="M1.83084231,5.8033092 C1.83084231,8.08001692 5.53617602,10.087089 10.0916245,10.087089 C14.6470731,10.087089 18.3285756,8.08001692 18.3285756,5.8033092 C18.3285756,3.52660149 14.6355684,1.6811815 10.0792981,1.6811815 C5.52384956,1.6811815 1.83084231,3.52660149 1.83084231,5.8033092 Z" id="Shape" fill="url(#linearGradient-16)"/>
                        <path d="M3.29703409,5.78298704 C3.29703409,3.68591244 6.65627085,1.97318712 10.9152959,1.82032093 C10.7114696,1.81283361 10.5076434,1.80534628 10.3001261,1.80534628 C5.7527916,1.80534628 2.06669465,3.58608145 2.06669465,5.78298704 C2.06669465,7.97989263 5.76509499,9.91661371 10.3120194,9.91661371 C10.5195367,9.91661371 10.7233629,9.9078785 10.9271891,9.90039118 C6.66734391,9.73504611 3.29703409,7.8794377 3.29703409,5.78298704 Z" id="Shape" fill="url(#linearGradient-17)" opacity="0.605751812"/>
                        <path d="M3.75061923,10.9351997 C4.01555232,11.0718433 4.28909778,11.2009997 4.57084551,11.318925 L4.57084551,15.0650827 C4.28089552,14.9359264 4.00365904,14.8005306 3.75061923,14.6570235 L3.75061923,10.9351997 Z" id="Shape" fill="#DA8418" opacity="0.605751812"/>
                        <path d="M6.21129809,11.8873377 C6.48115254,11.9628349 6.75428789,12.0320926 7.03152438,12.0919912 L7.03152438,15.8512517 C6.74895642,15.7913531 6.47500084,15.7245911 6.21129809,15.6515897 L6.21129809,11.8873377 Z" id="Shape" fill="#DA8418" opacity="0.605751812"/>
                        <path d="M9.49220325,16.1644714 C9.21168586,16.1513686 8.93937073,16.1289066 8.67197696,16.102077 L8.67197696,12.3527997 C8.94429209,12.382749 9.21824767,12.4052109 9.49220325,12.4195616 L9.49220325,16.1644714 Z" id="Shape" fill="#DA8418" opacity="0.605751812"/>
                        <path d="M13.5933347,12.0907433 C13.8705712,12.0295968 14.1428863,11.9603391 14.413561,11.8848419 L14.413561,15.6553334 C14.149038,15.7283348 13.8759026,15.7944728 13.5933347,15.8537475 L13.5933347,12.0907433 Z" id="Shape" fill="#DA8418" opacity="0.605751812"/>
                        <path d="M18.5142823,13.389794 L18.5142823,9.87511943 C18.8099739,9.63864479 19.0847497,9.38657155 19.3345086,9.11952367 L19.3345086,11.6652138 C19.3345086,12.204925 19.0453788,12.8057827 18.5142823,13.389794 Z" id="Shape" fill="#DA8418" opacity="0.605751812"/>
                        <path d="M16.8742398,14.6607672 C16.6203798,14.8042743 16.3431433,14.93967 16.0540136,15.0700742 L16.0540136,11.3133095 C16.3353512,11.1935124 16.6084865,11.064356 16.8742398,10.9264645 L16.8742398,14.6607672 Z" id="Shape" fill="#DA8418" opacity="0.605751812"/>
                        <path d="M2.11016665,13.3872982 C1.57907013,12.8045349 1.28994036,12.204925 1.28994036,11.6652138 L1.28994036,9.14260959 C1.53969926,9.40591381 1.81447507,9.65549126 2.11016665,9.89071802 L2.11016665,13.3872982 Z" id="Shape" fill="#DA8418" opacity="0.605751812"/>
                        <path d="M11.1326558,12.4208095 C11.4066114,12.4064588 11.6797468,12.382749 11.9528821,12.3540475 L11.9528821,16.1051968 C11.6846681,16.1307784 11.4131732,16.1526165 11.1326558,16.1657193 L11.1326558,12.4208095 Z" id="Shape" fill="#DA8418" opacity="0.605751812"/>
                    </g>
                    <g id="Group-16-Copy-3" transform="translate(13.309119, 32.843024) rotate(2.000000) translate(-13.309119, -32.843024) translate(0.365286, 22.203024)">
                        <path d="M0.211057429,13.1749169 C0.211057429,17.3491243 5.7565115,20.6317377 12.5801019,20.6317377 C19.4026628,20.6317377 24.9192906,17.3491243 24.9192906,13.1749169 L24.9342185,7.3829244 L0.22598532,7.3829244 L0.211057429,13.1749169 Z" id="Shape" fill="url(#linearGradient-14)"/>
                        <path d="M0.22598532,7.28578066 C0.22598532,11.309863 5.77143939,14.7658488 12.5950298,14.7658488 C19.4175907,14.7658488 24.9342185,11.309863 24.9342185,7.28578066 C24.9342185,3.26169829 19.4026628,-3.41060513e-13 12.5801019,-3.41060513e-13 C5.75702626,-3.41060513e-13 0.22598532,3.26169829 0.22598532,7.28578066 Z" id="Shape" fill="url(#linearGradient-15)"/>
                        <path d="M2.28500475,7.28151061 C2.28500475,10.1381344 6.909491,12.6564418 12.5949733,12.6564418 C18.2804555,12.6564418 22.875199,10.1381344 22.875199,7.28151061 C22.875199,4.42488678 18.266097,2.10940697 12.5795891,2.10940697 C6.89410682,2.10940697 2.28500475,4.42488678 2.28500475,7.28151061 Z" id="Shape" fill="url(#linearGradient-16)"/>
                        <path d="M4.11490301,7.25601204 C4.11490301,4.62477693 8.30743882,2.47579139 13.6229661,2.28398758 C13.3685784,2.27459311 13.1141906,2.26519864 12.8551962,2.26519864 C7.17984067,2.26519864 2.5793631,4.4995173 2.5793631,7.25601204 C2.5793631,10.0125068 7.19519607,12.4425436 12.8700397,12.4425436 C13.1290341,12.4425436 13.3834219,12.4315834 13.6378097,12.4221889 C8.32125868,12.2147277 4.11490301,9.88646428 4.11490301,7.25601204 Z" id="Shape" fill="url(#linearGradient-17)" opacity="0.605751812"/>
                        <path d="M4.68100539,13.7205807 C5.01165832,13.8920299 5.35306002,14.0540845 5.70469866,14.2020474 L5.70469866,18.9024151 C5.34282309,18.7403604 4.99681477,18.5704771 4.68100539,18.3904163 L4.68100539,13.7205807 Z" id="Shape" fill="#DA8418" opacity="0.605751812"/>
                        <path d="M7.75208522,14.9152445 C8.0888803,15.0099721 8.42977016,15.0968709 8.77577849,15.1720267 L8.77577849,19.8888347 C8.42311616,19.8136789 8.0812026,19.7299115 7.75208522,19.6383154 L7.75208522,14.9152445 Z" id="Shape" fill="#DA8418" opacity="0.605751812"/>
                        <path d="M11.8468583,20.2818368 C11.4967552,20.2653964 11.156889,20.237213 10.823165,20.2035495 L10.823165,15.4992675 C11.1630312,15.5368454 11.5049448,15.5650288 11.8468583,15.5830349 L11.8468583,20.2818368 Z" id="Shape" fill="#DA8418" opacity="0.605751812"/>
                        <path d="M16.9653247,15.170461 C17.311333,15.0937394 17.6511992,15.0068406 17.989018,14.912113 L17.989018,19.6430126 C17.6588769,19.7346088 17.317987,19.8175933 16.9653247,19.8919662 L16.9653247,15.170461 Z" id="Shape" fill="#DA8418" opacity="0.605751812"/>
                        <path d="M23.1069725,16.8004019 L23.1069725,12.39048 C23.4760139,12.0937713 23.8189512,11.7774907 24.1306658,11.4424212 L24.1306658,14.6365418 C24.1306658,15.3137267 23.7698139,16.0676331 23.1069725,16.8004019 Z" id="Shape" fill="#DA8418" opacity="0.605751812"/>
                        <path d="M21.0600978,18.3951136 C20.7432647,18.5751743 20.3972564,18.7450577 20.0364045,18.9086781 L20.0364045,14.1950016 C20.3875313,14.04469 20.7284212,13.8826354 21.0600978,13.7096205 L21.0600978,18.3951136 Z" id="Shape" fill="#DA8418" opacity="0.605751812"/>
                        <path d="M2.63361884,16.7972704 C1.97077744,16.0660673 1.60992556,15.3137267 1.60992556,14.6365418 L1.60992556,11.4713875 C1.92164017,11.8017598 2.26457741,12.1149089 2.63361884,12.4100519 L2.63361884,16.7972704 Z" id="Shape" fill="#DA8418" opacity="0.605751812"/>
                        <path d="M13.8942449,15.5846006 C14.2361584,15.5665945 14.5770483,15.5368454 14.9179381,15.5008332 L14.9179381,20.2074639 C14.5831904,20.2395616 14.244348,20.2669622 13.8942449,20.2834025 L13.8942449,15.5846006 Z" id="Shape" fill="#DA8418" opacity="0.605751812"/>
                    </g>
                    <g id="Group-16-Copy-3" transform="translate(15.177498, 15.613627) rotate(72.000000) translate(-15.177498, -15.613627) translate(2.233666, 4.973627)">
                        <path d="M0.211057429,13.1749169 C0.211057429,17.3491243 5.7565115,20.6317377 12.5801019,20.6317377 C19.4026628,20.6317377 24.9192906,17.3491243 24.9192906,13.1749169 L24.9342185,7.3829244 L0.22598532,7.3829244 L0.211057429,13.1749169 Z" id="Shape" fill="url(#linearGradient-14)"/>
                        <path d="M0.22598532,7.28578066 C0.22598532,11.309863 5.77143939,14.7658488 12.5950298,14.7658488 C19.4175907,14.7658488 24.9342185,11.309863 24.9342185,7.28578066 C24.9342185,3.26169829 19.4026628,-3.41060513e-13 12.5801019,-3.41060513e-13 C5.75702626,-3.41060513e-13 0.22598532,3.26169829 0.22598532,7.28578066 Z" id="Shape" fill="url(#linearGradient-15)"/>
                        <path d="M2.28500475,7.28151061 C2.28500475,10.1381344 6.909491,12.6564418 12.5949733,12.6564418 C18.2804555,12.6564418 22.875199,10.1381344 22.875199,7.28151061 C22.875199,4.42488678 18.266097,2.10940697 12.5795891,2.10940697 C6.89410682,2.10940697 2.28500475,4.42488678 2.28500475,7.28151061 Z" id="Shape" fill="url(#linearGradient-16)"/>
                        <path d="M4.11490301,7.25601204 C4.11490301,4.62477693 8.30743882,2.47579139 13.6229661,2.28398758 C13.3685784,2.27459311 13.1141906,2.26519864 12.8551962,2.26519864 C7.17984067,2.26519864 2.5793631,4.4995173 2.5793631,7.25601204 C2.5793631,10.0125068 7.19519607,12.4425436 12.8700397,12.4425436 C13.1290341,12.4425436 13.3834219,12.4315834 13.6378097,12.4221889 C8.32125868,12.2147277 4.11490301,9.88646428 4.11490301,7.25601204 Z" id="Shape" fill="url(#linearGradient-17)" opacity="0.605751812"/>
                        <path d="M4.68100539,13.7205807 C5.01165832,13.8920299 5.35306002,14.0540845 5.70469866,14.2020474 L5.70469866,18.9024151 C5.34282309,18.7403604 4.99681477,18.5704771 4.68100539,18.3904163 L4.68100539,13.7205807 Z" id="Shape" fill="#DA8418" opacity="0.605751812"/>
                        <path d="M7.75208522,14.9152445 C8.0888803,15.0099721 8.42977016,15.0968709 8.77577849,15.1720267 L8.77577849,19.8888347 C8.42311616,19.8136789 8.0812026,19.7299115 7.75208522,19.6383154 L7.75208522,14.9152445 Z" id="Shape" fill="#DA8418" opacity="0.605751812"/>
                        <path d="M11.8468583,20.2818368 C11.4967552,20.2653964 11.156889,20.237213 10.823165,20.2035495 L10.823165,15.4992675 C11.1630312,15.5368454 11.5049448,15.5650288 11.8468583,15.5830349 L11.8468583,20.2818368 Z" id="Shape" fill="#DA8418" opacity="0.605751812"/>
                        <path d="M16.9653247,15.170461 C17.311333,15.0937394 17.6511992,15.0068406 17.989018,14.912113 L17.989018,19.6430126 C17.6588769,19.7346088 17.317987,19.8175933 16.9653247,19.8919662 L16.9653247,15.170461 Z" id="Shape" fill="#DA8418" opacity="0.605751812"/>
                        <path d="M23.1069725,16.8004019 L23.1069725,12.39048 C23.4760139,12.0937713 23.8189512,11.7774907 24.1306658,11.4424212 L24.1306658,14.6365418 C24.1306658,15.3137267 23.7698139,16.0676331 23.1069725,16.8004019 Z" id="Shape" fill="#DA8418" opacity="0.605751812"/>
                        <path d="M21.0600978,18.3951136 C20.7432647,18.5751743 20.3972564,18.7450577 20.0364045,18.9086781 L20.0364045,14.1950016 C20.3875313,14.04469 20.7284212,13.8826354 21.0600978,13.7096205 L21.0600978,18.3951136 Z" id="Shape" fill="#DA8418" opacity="0.605751812"/>
                        <path d="M2.63361884,16.7972704 C1.97077744,16.0660673 1.60992556,15.3137267 1.60992556,14.6365418 L1.60992556,11.4713875 C1.92164017,11.8017598 2.26457741,12.1149089 2.63361884,12.4100519 L2.63361884,16.7972704 Z" id="Shape" fill="#DA8418" opacity="0.605751812"/>
                        <path d="M13.8942449,15.5846006 C14.2361584,15.5665945 14.5770483,15.5368454 14.9179381,15.5008332 L14.9179381,20.2074639 C14.5831904,20.2395616 14.244348,20.2669622 13.8942449,20.2834025 L13.8942449,15.5846006 Z" id="Shape" fill="#DA8418" opacity="0.605751812"/>
                    </g>
                </g>
            </g>
        </g>
    </g>
</svg>