<svg xmlns="http://www.w3.org/2000/svg" xmlns:xlink="http://www.w3.org/1999/xlink" width="152px" height="158px" viewBox="0 0 152 158" version="1.1">
    <!-- Generator: Sketch 52.5 (67469) - http://www.bohemiancoding.com/sketch -->
    <title>developer articles</title>
    <desc>Created with Sketch.</desc>
    <defs>
        <linearGradient x1="22.5181731%" y1="12.8216691%" x2="100%" y2="60.6354535%" id="linearGradient-1">
            <stop stop-color="#112E61" stop-opacity="0" offset="0%"/>
            <stop stop-color="#112E61" offset="100%"/>
        </linearGradient>
        <path d="M79.5778305,8.95972394 L119.78586,32.237657 C126.664839,36.2201553 130.90042,43.5664854 130.90042,51.5151106 L130.90042,98.1770022 C130.90042,106.125627 126.664839,113.471957 119.78586,117.454456 L79.5778305,140.732389 C72.6742718,144.729117 64.1605104,144.729117 57.2569517,140.732389 L17.0489223,117.454456 C10.1699435,113.471957 5.93436173,106.125627 5.93436173,98.1770022 L5.93436173,51.5151106 C5.93436173,43.5664854 10.1699435,36.2201553 17.0489223,32.237657 L57.2569517,8.95972394 C64.1605104,4.96299541 72.6742718,4.96299541 79.5778305,8.95972394 Z" id="path-2"/>
        <filter x="-12.0%" y="-10.9%" width="124.0%" height="121.8%" filterUnits="objectBoundingBox" id="filter-3">
            <feGaussianBlur stdDeviation="10" in="SourceAlpha" result="shadowBlurInner1"/>
            <feOffset dx="-10" dy="0" in="shadowBlurInner1" result="shadowOffsetInner1"/>
            <feComposite in="shadowOffsetInner1" in2="SourceAlpha" operator="arithmetic" k2="-1" k3="1" result="shadowInnerInner1"/>
            <feColorMatrix values="0 0 0 0 0   0 0 0 0 0.0274509804   0 0 0 0 0.133333333  0 0 0 0.24 0" type="matrix" in="shadowInnerInner1"/>
        </filter>
        <linearGradient x1="100%" y1="79.2196502%" x2="4.74372584%" y2="20.6260934%" id="linearGradient-4">
            <stop stop-color="#ED466F" offset="0%"/>
            <stop stop-color="#2B3362" stop-opacity="0" offset="100%"/>
        </linearGradient>
        <linearGradient x1="100%" y1="96.0238073%" x2="131.556486%" y2="-77.0140706%" id="linearGradient-5">
            <stop stop-color="#ED466F" offset="0%"/>
            <stop stop-color="#FAD165" offset="100%"/>
        </linearGradient>
        <linearGradient x1="100%" y1="96.0238073%" x2="144.859865%" y2="0%" id="linearGradient-6">
            <stop stop-color="#ED466F" offset="0%"/>
            <stop stop-color="#FAD165" offset="100%"/>
        </linearGradient>
        <linearGradient x1="75.1419626%" y1="52.4084343%" x2="0%" y2="-1.78166151%" id="linearGradient-7">
            <stop stop-color="#DB6C14" offset="0%"/>
            <stop stop-color="#FAD165" offset="100%"/>
        </linearGradient>
        <linearGradient x1="63.8330311%" y1="78.6297402%" x2="24.4353003%" y2="0%" id="linearGradient-8">
            <stop stop-color="#F4A440" offset="0%"/>
            <stop stop-color="#FAD165" offset="100%"/>
        </linearGradient>
        <linearGradient x1="90.396516%" y1="69.5127717%" x2="0%" y2="-1.78166151%" id="linearGradient-9">
            <stop stop-color="#DB6C14" offset="0%"/>
            <stop stop-color="#FAD165" offset="100%"/>
        </linearGradient>
        <linearGradient x1="97.2478155%" y1="32.8467621%" x2="146.671951%" y2="7.94422223%" id="linearGradient-10">
            <stop stop-color="#681717" offset="0%"/>
            <stop stop-color="#025CDD" offset="100%"/>
        </linearGradient>
        <linearGradient x1="50%" y1="0%" x2="50%" y2="100%" id="linearGradient-11">
            <stop stop-color="#4ABFE8" offset="0%"/>
            <stop stop-color="#025CDD" offset="100%"/>
        </linearGradient>
    </defs>
    <g id="Page-1" stroke="none" stroke-width="1" fill="none" fill-rule="evenodd">
        <g id="Development" transform="translate(-1046.000000, -3539.000000)">
            <g id="developer-articles" transform="translate(1037.000000, 3533.000000)">
                <g id="Group-39">
                    <g id="Group-24-Copy">
                        <g id="Group-6">
                            <g id="Group-97" transform="translate(0.582781, 0.872642)">
                                <rect id="Rectangle-Copy-6" fill-rule="nonzero" x="0" y="0" width="169.312914" height="169.677673"/>
                                <g id="Group-Copy" transform="translate(17.230960, 10.511006)">
                                    <g id="Polygon-Copy-5">
                                        <use fill="url(#linearGradient-1)" fill-rule="evenodd" xlink:href="#path-2"/>
                                        <use fill="black" fill-opacity="1" filter="url(#filter-3)" xlink:href="#path-2"/>
                                    </g>
                                    <path d="M79.4055993,2.69069437 L125.375759,29.3045405 C132.254738,33.2870388 136.49032,40.6333689 136.49032,48.5819941 L136.49032,101.915712 C136.49032,109.864337 132.254738,117.210667 125.375759,121.193165 L79.4055993,147.807011 C72.5020406,151.80374 63.9882792,151.80374 57.0847205,147.807011 L11.1145606,121.193165 C4.23558176,117.210667 5.06886024e-14,109.864337 4.61852778e-14,101.915712 L-3.55271368e-15,48.5819941 C-8.05603822e-15,40.6333689 4.23558176,33.2870388 11.1145606,29.3045405 L57.0847205,2.69069437 C63.9882792,-1.30603415 72.5020406,-1.30603415 79.4055993,2.69069437 Z" id="Polygon-Copy-4" stroke="url(#linearGradient-4)" stroke-width="2.5"/>
                                    <path d="M80.8891897,2.69069437 L126.85935,29.3045405 C133.738328,33.2870388 137.97391,40.6333689 137.97391,48.5819941 L137.97391,101.915712 C137.97391,109.864337 133.738328,117.210667 126.85935,121.193165 L80.8891897,147.807011 C73.985631,151.80374 65.4718697,151.80374 58.568311,147.807011 L12.598151,121.193165 C5.71917219,117.210667 1.48359043,109.864337 1.48359043,101.915712 L1.48359043,48.5819941 C1.48359043,40.6333689 5.71917219,33.2870388 12.598151,29.3045405 L58.568311,2.69069437 C65.4718697,-1.30603415 73.985631,-1.30603415 80.8891897,2.69069437 Z" id="Polygon-Copy-3" stroke="url(#linearGradient-4)" stroke-width="2.5" opacity="0.4"/>
                                </g>
                                <ellipse id="Oval-Copy-3" stroke="url(#linearGradient-5)" stroke-width="2.5" cx="58.4132996" cy="8.98857879" rx="2.22538565" ry="2.23150332"/>
                                <path d="M11.9317349,57.0449785 L13.7588889,58.1027863 C13.9881882,58.2355362 14.1293742,58.4804139 14.1293742,58.7453681 L14.1293742,60.8645179 C14.1293742,61.1294721 13.9881882,61.3743498 13.7588889,61.5070997 L11.9317349,62.5649076 C11.7016163,62.6981319 11.4178242,62.6981319 11.1877056,62.5649076 L9.36055158,61.5070997 C9.13125228,61.3743498 8.99006623,61.1294721 8.99006623,60.8645179 L8.99006623,58.7453681 C8.99006623,58.4804139 9.13125228,58.2355362 9.36055158,58.1027863 L11.1877056,57.0449785 C11.4178242,56.9117542 11.7016163,56.9117542 11.9317349,57.0449785 Z" id="Polygon-2-Copy-3" fill="url(#linearGradient-6)"/>
                                <path d="M157.271139,146.388532 L159.098293,147.44634 C159.327592,147.57909 159.468778,147.823967 159.468778,148.088922 L159.468778,150.208071 C159.468778,150.473026 159.327592,150.717903 159.098293,150.850653 L157.271139,151.908461 C157.04102,152.041685 156.757228,152.041685 156.52711,151.908461 L154.699956,150.850653 C154.470656,150.717903 154.32947,150.473026 154.32947,150.208071 L154.32947,148.088922 C154.32947,147.823967 154.470656,147.57909 154.699956,147.44634 L156.52711,146.388532 C156.757228,146.255308 157.04102,146.255308 157.271139,146.388532 Z" id="Polygon-2-Copy-13" fill="url(#linearGradient-6)"/>
                                <path d="M141.806852,14.3652387 L143.153162,15.1446683 C143.382462,15.2774182 143.523648,15.5222959 143.523648,15.7872501 L143.523648,17.3496434 C143.523648,17.6145976 143.382462,17.8594753 143.153162,17.9922252 L141.806852,18.7716548 C141.576733,18.9048791 141.292941,18.9048791 141.062822,18.7716548 L139.716512,17.9922252 C139.487213,17.8594753 139.346026,17.6145976 139.346026,17.3496434 L139.346026,15.7872501 C139.346026,15.5222959 139.487213,15.2774182 139.716512,15.1446683 L141.062822,14.3652387 C141.292941,14.2320144 141.576733,14.2320144 141.806852,14.3652387 Z" id="Polygon-2-Copy-8" fill="url(#linearGradient-6)"/>
                                <path d="M25.694535,57.16005 L26.3010454,57.5111816 C26.5303447,57.6439316 26.6715307,57.8888092 26.6715307,58.1537634 L26.6715307,58.8595607 C26.6715307,59.1245149 26.5303447,59.3693926 26.3010454,59.5021425 L25.694535,59.8532741 C25.4644164,59.9864984 25.1806243,59.9864984 24.9505057,59.8532741 L24.3439953,59.5021425 C24.114696,59.3693926 23.9735099,59.1245149 23.9735099,58.8595607 L23.9735099,58.1537634 C23.9735099,57.8888092 24.114696,57.6439316 24.3439953,57.5111816 L24.9505057,57.16005 C25.1806243,57.0268258 25.4644164,57.0268258 25.694535,57.16005 Z" id="Polygon-2-Copy-4" fill="url(#linearGradient-6)"/>
                            </g>
                            <g id="Group-38" transform="translate(88.000000, 85.000000) scale(-1, 1) translate(-88.000000, -85.000000) translate(58.000000, 40.000000)">
                                <g id="Group-51" transform="translate(30.000000, 45.000000) scale(-1, 1) translate(-30.000000, -45.000000) translate(0.000000, 2.500000)">
                                    <g id="Group-45-Copy-2" transform="translate(31.246644, 42.500000) scale(-1, 1) translate(-31.246644, -42.500000) translate(2.496644, 0.000000)">
                                        <path d="M37.1382804,15.8527389 C36.3771895,16.7556127 35.996644,17.8070127 35.996644,19.0069391 C35.996644,20.2068655 35.996644,23.3426799 35.996644,28.4143823 L44.1934107,28.4143823 L44.1934107,15.3211957 L40.0950273,15 L37.1382804,15.8527389 Z" id="Path-6" fill="#6D6D6D" transform="translate(40.095027, 21.707191) scale(-1, 1) translate(-40.095027, -21.707191) "/>
                                        <path d="M55.9046327,83.1954081 L54.1346237,84.6618287 L3.74825305,54.5817992 C2.65038857,53.9263879 1.96097765,52.7578438 1.91823483,51.4799379 L0.287160907,2.71481161 C0.284132531,1.43483561 3.08009185,-0.478733435 4.36953807,0.242140999 L54.509438,28.9214047 C55.6008644,29.5458201 56.2758893,30.7045416 56.2786148,31.9606295 L56.3582347,82.2285682 C56.3588267,82.6023764 56.1924861,82.9569268 55.9046327,83.1954081 Z" id="Fill-91-Copy" fill="url(#linearGradient-7)" fill-rule="nonzero"/>
                                        <path d="M12.3674211,71.6764657 L22.2949059,65.3637183 C23.5203938,64.5844478 25.0851507,64.5808379 26.314221,65.3544456 L39.6408381,73.7425529 C40.0080365,73.9736768 40.1183467,74.4587128 39.8872228,74.8259111 C39.8195916,74.9333604 39.7269262,75.0228176 39.6171616,75.0866225 L29.6533328,80.8784838 C28.4839461,81.5582351 27.0395184,81.5572953 25.8710173,80.8760229 L12.3932774,73.0180831 C12.0184507,72.7995475 11.8917517,72.3185323 12.1102873,71.9437055 C12.1734434,71.8353817 12.2616111,71.7437488 12.3674211,71.6764657 Z" id="Path-8-Copy-17" fill="url(#linearGradient-8)" fill-rule="nonzero"/>
                                        <path d="M12.3674211,70.8990265 L22.2949059,64.586279 C23.5203938,63.8070086 25.0851507,63.8033987 26.314221,64.5770064 L39.6408381,72.9651136 C40.0080365,73.1962375 40.1183467,73.6812735 39.8872228,74.0484719 C39.8195916,74.1559212 39.7269262,74.2453784 39.6171616,74.3091833 L29.6533328,80.1010445 C28.4839461,80.7807958 27.0395184,80.779856 25.8710173,80.0985837 L12.3932774,72.2406439 C12.0184507,72.0221083 11.8917517,71.541093 12.1102873,71.1662663 C12.1734434,71.0579424 12.2616111,70.9663095 12.3674211,70.8990265 Z" id="Path-8-Copy-18" fill="url(#linearGradient-9)" fill-rule="nonzero"/>
                                        <path d="M52.660598,84.7333531 L2.05823583,55.9047078 C0.887197017,55.2375559 0.162957031,53.9945165 0.160043958,52.646772 L0.052704295,2.98567017 C0.0496759198,1.70569417 1.43485474,0.901362461 2.5474798,1.53787308 L52.6873797,30.2171368 C53.7788062,30.8415522 54.453831,32.0002736 54.4565565,33.2563616 L54.5338005,83.6427454 C54.5348613,84.3347402 53.9747487,84.8965727 53.282754,84.8976336 C53.0646036,84.897968 52.850146,84.8413404 52.660598,84.7333531 Z" id="Fill-91" fill="url(#linearGradient-10)"/>
                                        <path d="M0.23967969,47.6372695 L54.6172589,79.0415219 L54.6243114,83.6418478 C54.6254084,84.35746 54.0436104,84.9384637 53.3248291,84.939556 C53.0973977,84.9399016 52.8738458,84.8809055 52.6764483,84.7684463 L2.21574349,56.0205045 C1.0029882,55.3295863 0.253532056,54.0461193 0.250525245,52.6550068 L0.23967969,47.6372695 Z" id="Path" fill="url(#linearGradient-8)" fill-rule="nonzero"/>
                                        <polygon id="Fill-93" fill="url(#linearGradient-8)" fill-rule="nonzero" opacity="0.664434524" points="2.38045706 4.18873576 52.1578605 32.7171116 52.2614309 74.4428776 2.38045706 45.8522114"/>
                                    </g>
                                </g>
                                <path d="M7.5,51.4520985 L37.524866,68.5070236 L37.524866,22.4759871 C37.524866,20.0987465 39.4520003,18.1716122 41.829241,18.1716122 C42.2036154,18.1716122 42.5763902,18.2204533 42.9381282,18.3168992 L15.7955412,1.64868499 C14.1281382,0.624735803 12.0477634,0.543285132 10.305408,1.43373573 L10.305408,1.43373573 C8.58355154,2.31371009 7.5,4.08432626 7.5,6.01801301 L7.5,51.4520985 Z" id="Path-151" fill="#FFFFFF"/>
                                <path d="M10.4967349,16.8642002 C10.0195404,16.5861644 9.85809049,15.9739293 10.1361263,15.4967349 C10.4141621,15.0195404 11.0263972,14.8580905 11.5035917,15.1361263 L32.2801628,27.2415295 C32.7573573,27.5195654 32.9188072,28.1318004 32.6407714,28.6089949 C32.3627356,29.0861893 31.7505005,29.2476393 31.2733061,28.9696034 L10.4967349,16.8642002 Z" id="Path-152" fill="url(#linearGradient-11)"/>
                                <path d="M10.4967349,24.3642002 C10.0195404,24.0861644 9.85809049,23.4739293 10.1361263,22.9967349 C10.4141621,22.5195404 11.0263972,22.3580905 11.5035917,22.6361263 L32.2801628,34.7415295 C32.7573573,35.0195654 32.9188072,35.6318004 32.6407714,36.1089949 C32.3627356,36.5861893 31.7505005,36.7476393 31.2733061,36.4696034 L10.4967349,24.3642002 Z" id="Path-152-Copy" fill="url(#linearGradient-11)"/>
                                <path d="M10.4967349,31.8642002 C10.0195404,31.5861644 9.85809049,30.9739293 10.1361263,30.4967349 C10.4141621,30.0195404 11.0263972,29.8580905 11.5035917,30.1361263 L32.2801628,42.2415295 C32.7573573,42.5195654 32.9188072,43.1318004 32.6407714,43.6089949 C32.3627356,44.0861893 31.7505005,44.2476393 31.2733061,43.9696034 L10.4967349,31.8642002 Z" id="Path-152-Copy-2" fill="url(#linearGradient-11)"/>
                                <path d="M10.4967349,39.3642002 C10.0195404,39.0861644 9.85809049,38.4739293 10.1361263,37.9967349 C10.4141621,37.5195404 11.0263972,37.3580905 11.5035917,37.6361263 L32.2801628,49.7415295 C32.7573573,50.0195654 32.9188072,50.6318004 32.6407714,51.1089949 C32.3627356,51.5861893 31.7505005,51.7476393 31.2733061,51.4696034 L10.4967349,39.3642002 Z" id="Path-152-Copy-3" fill="url(#linearGradient-11)"/>
                                <path d="M10.4967349,46.8642002 C10.0195404,46.5861644 9.85809049,45.9739293 10.1361263,45.4967349 C10.4141621,45.0195404 11.0263972,44.8580905 11.5035917,45.1361263 L18.3771746,48.9145625 C18.854369,49.1925984 19.015819,49.8048335 18.7377832,50.2820279 C18.4597473,50.7592223 17.8475122,50.9206723 17.3703178,50.6426365 L10.4967349,46.8642002 Z" id="Path-152-Copy-4" fill="url(#linearGradient-11)"/>
                            </g>
                        </g>
                    </g>
                </g>
            </g>
        </g>
    </g>
</svg>